<svg width="17" height="19" viewBox="0 0 17 19" fill="none" xmlns="http://www.w3.org/2000/svg">
<path d="M16.2273 8.61488C15.8007 8.61488 15.4546 8.26031 15.4546 7.82327C15.4546 5.60265 14.6108 3.51582 13.0784 1.94505C12.7764 1.63557 12.7764 1.13531 13.0784 0.825684C13.3805 0.516197 13.8689 0.516197 14.171 0.825684C15.9956 2.69478 17 5.17995 17 7.82327C17 8.26031 16.6539 8.61488 16.2273 8.61488Z" fill="white"/>
<path d="M0.772682 8.61488C0.346228 8.61488 0 8.26031 0 7.82327C0 5.17995 1.00459 2.69478 2.82897 0.825684C3.13105 0.516197 3.61948 0.516197 3.92156 0.825684C4.22379 1.13531 4.22379 1.63557 3.92156 1.94505C2.38922 3.51495 1.54551 5.60265 1.54551 7.82327C1.54551 8.26031 1.19928 8.61488 0.772682 8.61488Z" fill="white"/>
<path d="M15.7475 13.3895C14.5791 12.3777 13.9091 10.8988 13.9091 9.33214V7.125C13.9091 4.33919 11.8892 2.03304 9.27275 1.64673V0.791618C9.27275 0.353844 8.92652 0 8.50007 0C8.07347 0 7.72725 0.353844 7.72725 0.791618V1.64673C5.11009 2.03304 3.09087 4.33919 3.09087 7.125V9.33214C3.09087 10.8988 2.42091 12.3777 1.24569 13.3958C0.945018 13.6594 0.772682 14.0426 0.772682 14.4479C0.772682 15.2119 1.37925 15.8334 2.12505 15.8334H14.8751C15.6207 15.8334 16.2273 15.2119 16.2273 14.4479C16.2273 14.0426 16.055 13.6594 15.7475 13.3895Z" fill="white"/>
<path d="M8.50007 19C9.89942 19 11.0701 17.9779 11.3391 16.625H5.66105C5.92989 17.9779 7.10058 19 8.50007 19Z" fill="white"/>
</svg>
