<svg width="28" height="37" viewBox="0 0 28 37" fill="none" xmlns="http://www.w3.org/2000/svg">
<path fill-rule="evenodd" clip-rule="evenodd" d="M0.869333 12.5675C0.968282 10.5304 2.60166 8.93104 4.58311 8.93104H23.4169C25.3983 8.93104 27.0317 10.5304 27.1307 12.5675L27.9921 30.3021C28.1691 33.9459 25.3467 37 21.8025 37H6.19752C2.65327 37 -0.169099 33.9459 0.00789268 30.3021L0.869333 12.5675ZM4.58311 11.4828C3.92263 11.4828 3.37817 12.0159 3.34518 12.6949L2.48374 30.4296C2.37755 32.6158 4.07097 34.4483 6.19752 34.4483H21.8025C23.929 34.4483 25.6225 32.6158 25.5163 30.4295L24.6548 12.6949C24.6218 12.0159 24.0774 11.4828 23.4169 11.4828H4.58311Z" fill="white"/>
<path d="M14 0C10.2351 0 7.18295 3.14173 7.18295 7.01724V14.0345C7.18295 14.0345 7.18295 15.3103 8.42242 15.3103C9.66189 15.3103 9.66189 14.0345 9.66189 14.0345V7.01724C9.66189 4.551 11.6041 2.55172 14 2.55172C16.3959 2.55172 18.3382 4.551 18.3382 7.01724V14.0345C18.3382 14.0345 18.3382 15.3103 19.5777 15.3103C20.8171 15.3103 20.8171 14.0345 20.8171 14.0345V7.01724C20.8171 3.14173 17.765 0 14 0Z" fill="white"/>
<path d="M20.5899 21.3478L13.2043 28.5973C12.6574 29.1342 11.7703 29.1342 11.2228 28.5973L7.41034 24.8545C6.86322 24.3176 6.86322 23.4466 7.41034 22.9095C7.95756 22.3723 8.84467 22.3723 9.39165 22.9093L12.2139 25.6797L18.6083 19.4027C19.1555 18.8656 20.0427 18.866 20.5897 19.4027C21.1367 19.9398 21.1367 20.8105 20.5899 21.3478Z" fill="white"/>
</svg>
