<svg width="44" height="44" viewBox="0 0 44 44" fill="none" xmlns="http://www.w3.org/2000/svg">
<path d="M30.3 0H13.8C6.2 0 0 6.2 0 13.7V30.2C0 37.8 6.2 44 13.8 44H30.3C37.8 44 44 37.8 44 30.2V13.7C44 6.2 37.8 0 30.3 0ZM39.9 30.2C39.9 35.5 35.6 39.8 30.3 39.8H13.8C8.5 39.8 4.2 35.5 4.2 30.2V13.7C4.2 8.4 8.5 4.1 13.8 4.1H30.3C35.6 4.1 39.9 8.4 39.9 13.7V30.2Z" fill="url(#paint0_linear_353_5630)"/>
<path d="M22 11C15.9 11 11 15.9 11 22C11 28.1 15.9 33 22 33C28.1 33 33 28.1 33 22C33 15.9 28.1 11 22 11ZM22 28.9C18.2 28.9 15.1 25.8 15.1 22C15.1 18.2 18.2 15.1 22 15.1C25.8 15.1 28.9 18.2 28.9 22C28.9 25.8 25.8 28.9 22 28.9Z" fill="url(#paint1_linear_353_5630)"/>
<path fill-rule="evenodd" clip-rule="evenodd" d="M39.9 30.2C39.9 35.5 35.6 39.8 30.3 39.8H13.8C8.5 39.8 4.2 35.5 4.2 30.2V13.7C4.2 8.4 8.5 4.1 13.8 4.1H30.3C35.6 4.1 39.9 8.4 39.9 13.7V30.2ZM11 22C11 15.9 15.9 11 22 11C28.1 11 33 15.9 33 22C33 28.1 28.1 33 22 33C15.9 33 11 28.1 11 22Z" fill="white"/>
<path d="M22 28.9C18.2 28.9 15.1 25.8 15.1 22C15.1 18.2 18.2 15.1 22 15.1C25.8 15.1 28.9 18.2 28.9 22C28.9 25.8 25.8 28.9 22 28.9Z" fill="white"/>
<path d="M33.8 11.6C34.6 11.6 35.3 10.9 35.3 10.1C35.3 9.3 34.6 8.6 33.8 8.6C33 8.6 32.3 9.3 32.3 10.1C32.4 11 33 11.6 33.8 11.6Z" fill="url(#paint2_linear_353_5630)"/>
<defs>
<linearGradient id="paint0_linear_353_5630" x1="4.0279" y1="39.9724" x2="39.9721" y2="4.0276" gradientUnits="userSpaceOnUse">
<stop stop-color="#FFC107"/>
<stop offset="0.507" stop-color="#F44336"/>
<stop offset="0.99" stop-color="#9C27B0"/>
</linearGradient>
<linearGradient id="paint1_linear_353_5630" x1="6.4441" y1="37.5559" x2="37.5562" y2="6.4438" gradientUnits="userSpaceOnUse">
<stop stop-color="#FFC107"/>
<stop offset="0.507" stop-color="#F44336"/>
<stop offset="0.99" stop-color="#9C27B0"/>
</linearGradient>
<linearGradient id="paint2_linear_353_5630" x1="32.7887" y1="11.2114" x2="34.8613" y2="9.1384" gradientUnits="userSpaceOnUse">
<stop stop-color="#FFC107"/>
<stop offset="0.507" stop-color="#F44336"/>
<stop offset="0.99" stop-color="#9C27B0"/>
</linearGradient>
</defs>
</svg>
