<svg width="400" height="86" viewBox="0 0 400 86" fill="none" xmlns="http://www.w3.org/2000/svg">
<path d="M26.9315 71.879H29.2771V84.888H26.9315V79.078H21.2728V84.888H19.0623V71.879H21.4079V77.1377H27.072V71.879H26.9315Z" fill="#828382"/>
<path d="M46.9612 71.879V73.9544H42.9564V84.888H40.6107V73.9544H36.6005V71.879H46.9612Z" fill="#828382"/>
<path d="M54.4197 84.888V71.879H62.7104V73.9544H56.7707V77.1377H62.1538V79.078H56.7707V82.9477H63.1212V84.888H54.4197Z" fill="#828382"/>
<path d="M74.5845 71.7439C76.5194 71.7439 77.903 72.16 78.8704 72.8518C79.8325 73.5436 80.3837 74.6462 80.3837 76.0298C80.3837 76.7216 80.2486 77.4134 79.973 77.97C79.6919 78.5213 79.2866 78.9375 78.8704 79.3536C78.3137 79.7698 77.6219 79.9049 76.9301 80.0454C76.1086 80.1805 75.2763 80.3211 74.4494 80.3211H73.3414V84.888H70.9958V72.0195C71.5471 71.879 72.2389 71.7439 72.7902 71.7439C73.3414 71.7439 74.0332 71.7439 74.5845 71.7439ZM74.725 73.8192C74.1684 73.8192 73.6171 73.8192 73.2009 73.8192V78.2457H74.3089C75.1412 78.2457 76.1086 78.1052 76.9301 77.6944C77.4868 77.4134 77.903 76.7216 77.903 75.8946C77.903 75.4785 77.7625 75.2028 77.6219 74.7867C77.4868 74.511 77.2112 74.2354 76.9301 74.0949C76.6545 73.9544 76.2383 73.8192 75.9681 73.8192C75.5519 73.8192 75.1412 73.8192 74.725 73.8192Z" fill="#828382"/>
<path d="M96.133 71.879H98.4786V84.888H96.133V79.078H90.4689V84.888H88.1232V71.879H90.4689V77.1377H96.133V71.879Z" fill="#828382"/>
<path d="M107.186 84.888V71.879H115.471V73.9544H109.531V77.1377H114.779V79.078H109.531V82.9477H115.887V84.888H107.186Z" fill="#828382"/>
<path d="M132.598 71.879V73.9544H128.593V84.888H126.248V73.9544H122.238V71.879H132.598Z" fill="#828382"/>
<path d="M137.987 77.2782H142.954V79.3536H137.987V77.2782Z" fill="#828382"/>
<path d="M153.455 71.879C153.731 72.4356 154.006 72.9869 154.422 73.6787C154.698 74.3705 155.109 75.0623 155.384 75.8946C155.66 76.5864 156.076 77.4134 156.492 78.2457L157.46 80.4616L158.422 78.2457C158.703 77.4134 159.114 76.7216 159.395 75.8946C159.67 75.2028 160.086 74.3705 160.362 73.6787C160.638 72.9869 161.054 72.4356 161.324 71.879H163.4C163.54 72.8518 163.675 73.8192 163.675 74.9272C163.816 76.0298 163.816 77.1377 163.951 78.2457C164.091 79.3536 164.091 80.4616 164.226 81.5641C164.226 82.6721 164.362 83.7801 164.362 84.888H162.016C162.016 83.3639 161.875 81.8452 161.875 80.1805C161.74 78.5213 161.74 77.0026 161.6 75.4785L161.054 76.4459C160.913 76.8621 160.638 77.2782 160.497 77.6944C160.362 78.1052 160.086 78.6618 159.805 79.2131C159.53 79.6293 159.395 80.1805 159.114 80.7372L158.562 82.1208L158.146 83.2288H156.352L155.941 82.1208C155.801 81.7047 155.525 81.2885 155.384 80.7372C155.249 80.3211 154.968 79.7698 154.698 79.2131C154.422 78.6618 154.282 78.2457 154.006 77.6944L153.455 76.4459C153.314 76.0298 153.039 75.7541 152.898 75.4785C152.763 77.0026 152.623 78.5213 152.623 80.1805C152.487 81.8452 152.487 83.3639 152.487 84.888H150.277C150.277 83.7801 150.418 82.6721 150.418 81.5641C150.553 80.4616 150.553 79.2131 150.693 78.1052C150.828 77.0026 150.828 75.8946 150.969 74.7867C151.109 73.6787 151.244 72.7113 151.244 71.879H153.455Z" fill="#828382"/>
<path d="M181.213 84.888C181.078 84.3313 180.803 83.9206 180.662 83.3639C180.522 82.8126 180.246 82.3965 180.111 81.8452H174.722C174.587 82.3965 174.306 82.9477 174.171 83.3639C174.031 83.9206 173.755 84.3313 173.62 84.888H171.134C171.544 83.5044 172.101 82.2559 172.517 81.0129C172.928 79.9049 173.344 78.6618 173.755 77.6944C174.171 76.5864 174.587 75.619 174.998 74.6462C175.414 73.6787 175.83 72.7113 176.246 71.879H178.452C178.868 72.8518 179.284 73.6787 179.7 74.6462C180.111 75.619 180.522 76.5864 180.938 77.6944C181.354 78.797 181.77 79.9049 182.186 81.0129C182.597 82.1208 183.148 83.5044 183.564 84.888H181.213ZM177.484 74.3705C177.208 75.0623 176.933 75.8946 176.522 76.8621C176.106 77.8295 175.83 78.797 175.414 79.9049H179.7C179.284 78.797 178.868 77.6944 178.592 76.8621C178.041 75.7541 177.76 75.0623 177.484 74.3705Z" fill="#828382"/>
<path d="M193.368 84.888H191.023V71.879H199.168V73.9544H193.368V84.888Z" fill="#828382"/>
<path d="M213.955 84.888C213.814 84.3313 213.539 83.9206 213.398 83.3639C213.263 82.8126 212.982 82.3965 212.847 81.8452H207.458C207.323 82.3965 207.048 82.9477 206.907 83.3639C206.767 83.9206 206.491 84.3313 206.356 84.888H203.87C204.421 83.5044 204.837 82.2559 205.248 81.0129C205.664 79.9049 206.075 78.6618 206.491 77.6944C206.907 76.5864 207.323 75.619 207.739 74.6462C208.15 73.6787 208.561 72.7113 208.977 71.879H211.193C211.598 72.8518 212.015 73.6787 212.431 74.6462C212.847 75.619 213.263 76.5864 213.674 77.6944C214.09 78.797 214.501 79.9049 214.917 81.0129C215.333 82.1208 215.884 83.5044 216.3 84.888H213.955ZM210.22 74.3705C209.945 75.0623 209.669 75.8946 209.253 76.8621C208.837 77.8295 208.561 78.797 208.15 79.9049H212.431C212.015 78.797 211.598 77.6944 211.328 76.8621C210.777 75.7541 210.501 75.0623 210.22 74.3705Z" fill="#828382"/>
<path d="M226.521 77.1377C226.937 77.1377 227.207 77.1377 227.623 77.0026C227.899 77.0026 228.315 76.8621 228.591 76.7216C228.866 76.5864 229.147 76.4459 229.283 76.1703C229.423 75.8946 229.558 75.619 229.558 75.2028C229.558 74.7867 229.283 74.2354 229.007 74.0949C228.456 73.8192 227.899 73.6787 227.348 73.6787C226.796 73.6787 226.105 73.6787 225.553 73.9544C225.137 74.0949 224.586 74.2354 224.17 74.511L223.343 72.5708C223.899 72.2951 224.445 72.0195 225.002 71.879C225.694 71.7438 226.521 71.6033 227.348 71.6033C228.039 71.6033 228.591 71.6033 229.147 71.879C229.699 72.0195 230.115 72.2951 230.526 72.5708C230.936 72.8518 231.217 73.2626 231.493 73.6787C231.769 74.0949 231.909 74.6462 231.909 75.2028C231.909 75.7541 231.769 76.3108 231.493 76.7216C231.217 77.2782 230.661 77.6944 230.115 77.8295C230.385 77.97 230.801 78.1052 231.077 78.2457C231.628 78.6618 232.185 79.2131 232.46 79.9049C232.601 80.3211 232.601 80.7372 232.601 81.1534C232.601 81.8452 232.46 82.3965 232.185 82.9477C231.909 83.3639 231.628 83.9206 231.077 84.1962C230.526 84.4719 229.974 84.7475 229.423 84.888C228.731 85.0231 227.899 85.1637 227.207 85.1637C226.796 85.1637 226.386 85.1637 225.829 85.0231C225.413 85.0231 225.002 84.888 224.586 84.7475C224.31 84.6124 223.899 84.6124 223.624 84.4719C223.343 84.3313 223.067 84.1962 222.932 84.1962L223.624 82.2559C223.759 82.3965 224.029 82.3965 224.17 82.537C224.445 82.6721 224.721 82.6721 225.002 82.8126C225.278 82.9477 225.694 82.9477 225.969 83.0883C226.386 83.0883 226.661 83.2288 227.072 83.2288C227.899 83.2288 228.591 83.0883 229.283 82.8126C229.839 82.537 230.115 81.8452 230.115 81.2885C230.115 80.8723 229.974 80.5967 229.839 80.1805C229.699 79.9049 229.423 79.6293 229.147 79.4887C228.731 79.3536 228.456 79.2131 228.039 79.2131C227.623 79.2131 227.072 79.078 226.661 79.078H225.278V77.1377H226.521Z" fill="#828382"/>
<path d="M240.605 84.888V71.879H242.956V80.4616C243.367 79.7698 243.924 79.078 244.475 78.2457C245.032 77.4134 245.583 76.7216 246.129 75.8946C246.686 75.0623 247.237 74.3705 247.929 73.6787C248.62 72.9869 249.037 72.2951 249.582 71.7439H251.523V84.7475H249.172V75.4785C248.62 76.0298 248.069 76.8621 247.512 77.5539C246.961 78.3862 246.41 79.078 245.859 80.0454C245.307 80.8723 244.751 81.7047 244.199 82.537C243.648 83.3639 243.232 84.0557 242.816 84.888H240.605Z" fill="#828382"/>
<path d="M267.953 71.879H270.304V84.888H267.953V79.078H262.294V84.888H259.943V71.879H262.294V77.1377H267.953V71.879Z" fill="#828382"/>
<path d="M306.904 71.879V73.9544H302.9V84.888H300.554V73.9544H296.544V71.879H306.904Z" fill="#828382"/>
<path d="M321.962 84.888C321.686 84.3313 321.275 83.9206 320.859 83.3639C320.443 82.8126 320.027 82.2559 319.476 81.8452C318.924 81.2885 318.508 80.8723 317.957 80.3211C317.546 79.9049 316.99 79.4888 316.438 79.078V84.888H314.093V71.879H316.438V77.2782C316.854 76.8621 317.265 76.4459 317.681 76.0298C318.098 75.619 318.508 75.0623 319.06 74.6462C319.476 74.0949 319.892 73.6787 320.308 73.2626C320.719 72.8518 321 72.4356 321.405 72.0195H324.172C323.762 72.5708 323.345 72.9869 322.929 73.5436C322.513 74.0949 321.962 74.511 321.546 75.0623C321.135 75.619 320.584 76.0298 320.168 76.5864C319.751 77.1377 319.2 77.5539 318.643 78.1052C319.2 78.5213 319.751 78.9375 320.308 79.4887C320.859 80.0454 321.405 80.5967 321.962 81.1534C322.513 81.7047 322.929 82.3965 323.481 83.0883C323.897 83.7801 324.453 84.3313 324.724 85.0231L321.962 84.888Z" fill="#828382"/>
<path d="M341.159 84.888C341.024 84.3313 340.743 83.9206 340.608 83.3639C340.467 82.8126 340.197 82.3965 340.057 81.8452H334.528C334.393 82.3965 334.117 82.9477 333.976 83.3639C333.841 83.9206 333.566 84.3313 333.431 84.888H330.939C331.355 83.5044 331.906 82.2559 332.323 81.0129C332.739 79.9049 333.15 78.6618 333.566 77.6944C333.976 76.5864 334.393 75.619 334.809 74.6462C335.22 73.6787 335.636 72.7113 336.052 71.879H338.262C338.673 72.8518 339.089 73.6787 339.505 74.6462C339.922 75.619 340.332 76.5864 340.743 77.6944C341.159 78.797 341.575 79.9049 341.992 81.0129C342.408 82.1208 342.819 83.5044 343.375 84.888H341.159ZM337.29 74.3705C337.019 75.0623 336.744 75.8946 336.328 76.8621C335.911 77.8295 335.636 78.797 335.22 79.9049H339.505C339.089 78.797 338.673 77.6944 338.398 76.8621C337.981 75.7541 337.571 75.0623 337.29 74.3705Z" fill="#828382"/>
<path d="M358.843 71.879H361.189V84.888H358.843V79.078H353.314V84.888H350.969V71.879H353.314V77.1377H358.984V71.879H358.843Z" fill="#828382"/>
<path d="M0 84.888V71.879H2.34563V80.4616C2.76179 79.7698 3.31847 79.078 3.86975 78.2457C4.41562 77.4134 4.9723 76.7216 5.52358 75.8946C6.08026 75.0623 6.63154 74.3705 7.31793 73.6787C8.00973 72.9869 8.42589 72.2951 8.97717 71.7439H10.7715V84.7475H8.42589V75.4785C7.86921 76.0298 7.31793 76.8621 6.77206 77.5539C6.21538 78.3862 5.6641 79.078 5.10742 80.0454C4.55614 80.8723 4.00486 81.7047 3.45359 82.537C2.90231 83.3639 2.48615 84.0557 2.06999 84.888H0Z" fill="#828382"/>
<path d="M370.999 84.888V71.879H379.284V73.9544H373.344V77.1377H378.592V79.078H373.344V82.9477H379.7V84.888H370.999Z" fill="#828382"/>
<path d="M389.088 84.888V71.879H391.439V80.4616C391.85 79.7698 392.406 79.078 392.958 78.2457C393.514 77.4134 394.06 76.7216 394.612 75.8946C395.168 75.0623 395.719 74.3705 396.411 73.6787C397.098 72.9869 397.514 72.2951 398.065 71.7439H400V84.7475H397.514V75.4785C396.963 76.0298 396.411 76.8621 395.86 77.5539C395.303 78.3862 394.752 79.078 394.201 80.0454C393.649 80.8723 393.098 81.7047 392.542 82.537C391.99 83.3639 391.574 84.0557 391.158 84.888H389.088Z" fill="#828382"/>
<path d="M391.99 68.701H396.963V70.7764H391.99V68.701Z" fill="#828382"/>
<path d="M41.3025 3.39093C41.0215 3.94761 40.6107 4.36377 40.3297 4.91505C38.811 4.22325 37.2923 3.67197 35.7735 2.98017C35.4925 4.08273 35.0871 5.05557 34.9466 6.15812C34.8061 6.7148 35.2223 7.4066 35.3574 7.95788C35.3574 8.0984 35.7735 8.23352 36.0492 8.23352C36.741 8.23352 37.5679 8.0984 38.4002 7.95788C38.4002 7.26608 38.4002 6.7148 38.4002 6.02301C39.2271 6.43917 39.3622 6.7148 38.811 7.4066C37.7084 9.06584 36.6005 10.8656 35.3574 12.5248C34.671 13.6328 33.9792 14.6002 33.1469 15.8433C33.563 15.9838 33.8387 16.1243 34.1143 16.2595C35.4925 16.6756 37.0166 17.0918 38.4002 17.6431C39.0866 17.9187 39.5028 17.7836 39.9189 17.2269C42.3997 14.6002 45.302 12.5248 48.3394 10.7251C48.7556 10.59 49.0312 10.3089 49.4474 10.1738C57.1869 18.751 58.8407 34.6624 49.1717 46.0068C39.5028 57.3512 22.5159 58.8753 10.912 49.3307C-0.691798 39.9211 -2.62127 22.6262 6.49101 10.8656C15.8843 -1.7273 31.7687 -2.14346 41.3025 3.39093ZM43.3725 37.9809C42.9564 37.9809 42.8158 37.9809 42.5402 37.9809C40.3297 37.9809 37.9841 37.8457 35.7735 37.8457C34.8061 37.8457 33.7036 37.5701 32.7307 37.4296C32.32 37.4296 31.7687 37.1539 31.493 37.7052C31.0769 38.397 30.5256 38.9537 30.1094 39.7806C29.9689 40.0562 30.1094 40.6129 30.25 41.0291C30.5256 41.4398 30.3851 41.856 30.25 42.1316C29.5582 43.1045 28.7313 43.7963 27.4882 44.0719C26.9315 44.207 26.6559 44.4881 26.5153 44.8988C26.3802 45.315 26.1046 45.7312 25.6938 45.8717C24.8615 46.2824 24.3102 46.8391 23.6184 47.666C23.8941 47.8065 24.0346 47.8066 24.3102 47.9471C27.6233 48.774 30.9418 49.3307 34.3954 49.6063C35.2223 49.6063 35.9087 49.4658 36.4653 48.774C39.3622 45.8717 41.5782 42.6883 43.232 38.9537C43.232 38.5375 43.232 38.2619 43.3725 37.9809ZM18.7867 45.8717C18.7867 45.5906 18.7866 45.4555 18.6461 45.4555C17.6787 43.3801 17.2625 41.3047 16.9869 39.0888C16.9869 38.6727 16.8464 38.397 17.2625 37.9809C17.6787 37.5701 17.8192 36.8783 17.8192 36.3216C17.8192 35.2137 17.4031 34.1111 16.9869 33.1383C16.7113 32.587 16.441 32.1708 15.8843 31.8952C14.2251 30.9278 12.5713 29.9603 10.7715 28.9875C10.4959 28.8524 10.3554 28.7118 9.9446 28.5767C9.80948 29.6793 9.80948 30.6521 9.66896 31.6195C9.39332 34.938 9.80948 38.1214 10.631 41.3047C10.7715 41.856 11.0472 42.2722 11.6038 42.5478C13.6738 43.5152 15.7492 44.4881 17.8192 45.4555C18.0949 45.7312 18.3705 45.7312 18.7867 45.8717ZM37.9841 24.9772C38.2597 25.8095 38.811 26.0852 39.5028 26.5013C40.3297 26.9121 41.3025 27.3282 42.124 27.7444C42.6807 28.02 42.8158 28.4362 42.5402 29.128C42.2646 29.5442 41.9889 29.6793 41.5782 29.6793C40.7458 29.5442 39.9189 29.9603 39.2271 30.3711C38.4002 30.7872 37.4328 31.2034 36.4653 31.479C35.4925 31.7547 35.3574 31.6195 35.2223 30.6521C35.0871 30.0954 35.0871 29.2685 34.671 28.8524C33.9792 27.8849 33.7036 26.9121 33.9792 25.669C34.2548 24.4259 33.4225 23.8692 32.1794 24.1449C32.1794 24.2854 32.1794 24.4259 32.1794 24.4259C32.5956 25.2528 32.7307 26.0852 32.4551 27.0526C32.32 27.4688 32.4551 28.02 32.7307 28.1606C33.4225 28.8524 33.563 29.6793 33.7036 30.5116C33.8387 30.9278 33.9792 31.3439 34.1143 31.8952C34.2548 32.4465 34.8061 32.7275 35.3574 32.8626C35.633 32.8626 36.0492 32.8626 36.3248 32.8626C36.8761 32.8626 37.4328 33.0031 37.7084 33.2788C37.2923 34.8029 36.1843 35.3542 34.9466 35.9055C34.671 36.046 34.2548 36.1865 33.9792 36.3216C33.8387 36.4621 33.563 36.5973 33.2874 36.7378C33.7036 36.8783 33.8387 36.8783 34.1143 37.0134C35.3574 37.1539 36.741 37.2891 37.9841 37.4296C39.6379 37.4296 41.4376 37.4296 43.0915 37.4296C43.7833 37.4296 44.0643 37.1539 44.34 36.4621C45.1615 34.1111 45.8533 31.6195 46.4099 29.128C46.4099 28.8524 46.4099 28.5767 46.2694 28.2957C46.1343 28.02 45.8533 27.7444 45.7181 27.3282C45.4425 26.777 45.0263 26.5013 44.34 26.6364C43.9238 26.777 43.5076 26.9121 43.232 26.9121C42.8158 26.777 42.5402 26.6364 42.124 26.5013C41.7079 26.3608 41.162 26.2203 40.7458 25.9446C39.9189 25.2528 39.0866 24.9772 37.9841 24.9772ZM52.4848 35.3542L52.3497 35.2137C50.1392 36.5973 47.7935 37.2891 45.302 37.5701C44.4751 37.7052 44.1994 38.1214 43.9238 38.6727C42.2646 42.2722 40.1946 45.5906 37.2923 48.4983C37.1571 48.6389 37.0166 48.9145 36.741 49.1901C37.1571 49.1901 37.4328 49.3307 37.7084 49.3307C39.2271 49.1901 40.6107 49.0496 42.124 48.9145C42.8158 48.9145 43.232 48.6389 43.7833 48.2227C47.7935 45.0394 50.6904 41.1642 52.3497 36.3216C52.3497 36.046 52.4848 35.6298 52.4848 35.3542ZM2.62667 29.5442C2.62667 29.6793 2.62667 29.8198 2.62667 29.9603C2.90231 32.3113 3.31847 34.6624 4.2805 37.0134C4.41562 37.1539 4.41562 37.4296 4.55614 37.5701C6.08026 39.0888 7.86921 40.4724 9.80948 41.4398C9.80948 41.4398 9.80948 41.4398 9.9446 41.4398C9.9446 41.1642 9.9446 40.8886 9.80948 40.6129C8.97717 36.7378 8.84205 33.0031 9.39332 29.128C9.53385 28.2957 9.2528 27.8849 8.70153 27.4688C6.77206 26.0852 5.10742 24.4259 3.72923 22.4856C3.59411 22.3505 3.45359 22.21 3.17795 21.9344C3.03743 23.0423 2.90231 23.8692 2.76179 24.7016C2.48615 25.8095 2.76179 26.6364 3.31847 27.6039C4.00486 28.8524 4.00486 28.8524 2.62667 29.5442ZM9.53385 27.0526C9.66896 26.5013 9.66896 25.9446 9.9446 25.3934C10.2202 24.4259 10.3554 23.318 10.0851 22.3505C9.80948 21.3777 10.0851 20.5508 10.3554 19.7185C10.912 18.3349 11.739 17.0918 12.8469 16.1243C13.1225 15.8433 13.2631 15.7082 13.5333 15.4325C11.8795 13.9084 10.3554 12.5248 8.561 10.8656C8.42589 11.1412 8.42589 11.2818 8.15025 11.5574C6.08026 14.0489 4.55614 16.9513 3.59411 19.9941C3.45359 20.5508 3.45359 20.9669 3.86975 21.5182C5.24794 23.5936 7.04229 25.3934 9.11769 26.9121C9.2528 26.9121 9.39333 26.9121 9.53385 27.0526ZM13.8089 14.7407C14.9169 13.2166 15.7492 11.6925 16.8464 10.3089C17.9543 8.92532 19.2028 7.68224 20.3 6.29864C19.4784 5.74737 18.511 5.19069 17.6787 4.49889C17.2625 4.22325 16.9869 4.36377 16.7113 4.49889C13.9495 5.88248 11.4633 7.68224 9.39332 10.0333C9.39332 10.1738 9.2528 10.1738 9.2528 10.4494C10.631 12.1087 12.1551 13.4923 13.8089 14.7407ZM34.3954 50.0225C30.5256 49.6063 26.6559 48.9145 22.9266 47.9471C22.5159 49.6063 22.0997 50.9899 21.5484 52.5086C21.9646 52.6491 22.0997 52.7897 22.3754 52.7897C24.0346 53.0653 25.6938 53.2004 27.3477 53.4815C27.6233 53.4815 28.0395 53.4815 28.3151 53.4815C30.5256 52.7897 32.5956 51.6817 34.3954 50.0225ZM22.2402 47.8066C18.3705 46.6986 14.9169 45.1799 11.3228 43.2396C11.4633 43.7963 11.6038 44.0719 11.739 44.3476C12.4308 45.7312 13.1225 46.9742 13.9495 48.3578C14.6413 49.4658 15.6087 50.2981 16.8464 50.8494C17.9543 51.2655 19.0623 51.8168 20.0243 52.233C20.3 52.3735 20.581 52.3735 20.9918 52.3735C21.4079 50.8494 21.8241 49.4658 22.2402 47.8066ZM44.7507 37.0134C45.4425 36.8783 46.1343 36.8783 46.6856 36.7378C48.6151 36.3216 50.5553 35.6298 52.2092 34.5219C52.4848 34.2462 52.901 33.9706 53.0415 33.6949C53.3171 32.7275 53.5928 31.6195 53.3171 30.5116C53.1766 30.0954 53.1766 29.6793 53.1766 29.128C53.1766 28.5767 53.0415 28.2957 52.4848 28.1606C51.9335 28.02 51.5174 28.1606 51.5174 28.8524C51.5174 29.4036 51.2417 29.6793 50.6904 29.8198C50.1392 30.0954 49.723 30.3711 49.723 31.0629C49.723 31.6195 49.4474 32.1708 49.3068 32.7275C49.3068 32.7275 49.3068 32.7275 49.3068 32.8626C49.4474 33.6949 49.0312 34.5219 48.0638 34.6624C48.0638 34.5219 47.9233 34.2462 47.9233 34.1111C47.7935 33.6949 47.7935 33.2788 47.5179 33.0031C47.2369 32.587 47.1017 32.1708 47.2369 31.6195C47.3774 31.3439 47.3774 30.9278 47.2369 30.6521C46.9612 30.236 47.1017 29.8198 47.1017 29.2685C47.1017 28.8524 47.3774 28.4362 46.9612 27.8849C46.2694 31.0629 45.5776 33.9706 44.7507 37.0134ZM23.7535 4.77453C23.2023 5.46632 22.2402 5.60685 21.6836 6.43917C23.8941 7.68224 26.1046 8.7902 28.3151 9.61711C29.142 8.92532 29.142 8.92532 29.8338 9.482C29.6933 9.61712 29.5582 9.89816 29.4176 10.0333C29.6933 10.1738 29.8338 10.3089 30.1094 10.3089C30.9418 10.59 31.2174 10.4494 31.3525 9.61711C31.493 9.20636 31.6336 9.06584 31.9092 8.7902C32.32 8.51456 32.7307 8.23352 32.8712 7.68224C32.32 7.26608 31.9092 7.26608 31.3525 7.54172C30.5256 7.82276 29.8338 7.95788 29.0069 8.0984C28.7313 8.0984 28.4556 7.82276 28.3151 7.68224C28.4556 7.4066 28.5907 7.26608 28.7313 6.99044C28.8718 6.84992 29.0069 6.84992 29.142 6.7148C30.25 6.29864 31.2174 6.02301 32.32 5.60685C32.4551 5.60685 32.7307 5.60685 32.8712 5.74737C33.1469 5.74737 33.4225 5.88248 33.7036 6.02301C33.9792 5.05557 34.2548 4.22325 34.3954 3.39093C34.5305 3.11529 34.3953 2.83965 34.1143 2.83965C33.9792 2.83965 33.7036 2.98017 33.563 3.11529C32.7307 4.63941 31.2174 4.91505 29.6933 4.77453C28.5907 4.63941 27.6233 4.77453 26.5153 5.05557C25.9641 5.60685 24.8615 5.74737 23.7535 4.77453ZM26.2397 9.34148C24.7264 8.64968 23.3428 7.82276 21.9646 7.13096C20.9918 6.7148 20.9918 6.57428 20.3 7.26608C18.0949 9.34148 16.3005 11.6925 14.7764 14.3246C14.6413 14.6002 14.6413 14.7407 14.5007 15.0164C15.1925 15.4325 15.8843 15.292 16.441 15.292C17.2625 15.292 18.0949 15.292 18.9218 15.292C19.2028 15.292 19.4784 15.292 19.6082 15.1515C19.7487 15.0164 20.0243 14.7407 20.0243 14.6002C20.0243 14.4597 19.7487 14.1841 19.6082 14.0489C19.3379 13.9084 19.0623 13.9084 18.7867 13.9084C17.9543 13.6328 17.5382 12.6654 18.3705 12.1087C19.0623 11.6925 19.2028 11.0007 19.4784 10.4494C19.6082 10.0333 19.7487 9.61712 20.4405 9.482C20.581 9.89816 20.581 10.1738 20.7161 10.4494C20.8566 11.0007 21.4079 11.2818 21.9646 11.2818C22.5159 11.1412 22.7861 10.7251 22.7861 10.0333C22.7861 9.89816 22.6564 9.61712 22.6564 9.20636C23.6184 9.61712 24.3102 9.89816 25.1371 10.3089C25.4182 10.1738 25.8289 9.75764 26.2397 9.34148ZM24.8615 12.941C24.3102 12.941 23.7535 13.3571 23.2023 13.7679C22.7861 14.0489 22.3754 14.1841 21.9646 13.9084C21.8241 13.7679 21.5484 13.7679 21.2728 13.6328C20.9918 14.0489 20.7161 14.3246 20.3 14.8759C20.9918 14.8759 21.2728 14.8759 21.5484 14.8759C22.2402 15.5677 22.7861 16.1243 23.3428 16.6756C22.9266 17.0918 23.0617 17.6431 23.4779 18.0592C23.8941 18.4754 24.1697 18.8915 24.5859 19.3023C24.5859 19.3023 24.5859 19.1672 24.7264 19.1672C25.2777 19.3023 25.8289 19.4428 26.3802 19.5833C27.4882 19.9941 28.5907 20.4103 29.8338 20.8264C29.9689 20.2751 30.25 19.7185 30.25 19.3023C29.9689 18.4754 30.25 17.7836 30.9418 17.2269C30.9418 17.2269 30.9418 17.0918 30.9418 16.9513C30.6607 16.8161 30.5256 16.6756 29.9689 16.4C29.4176 16.9513 28.8718 17.6431 28.4556 18.1997C27.3477 17.5079 28.18 16.5351 27.8989 15.5677C27.4882 15.9838 27.3477 16.4 26.9315 16.6756C26.5153 16.9513 25.9641 17.0918 25.5533 17.3674C25.4182 17.2269 25.4182 17.0918 25.2777 16.9513C24.7264 15.9838 24.7264 15.9838 25.4182 15.292C25.6938 15.0164 25.8289 14.7407 25.5533 14.3246C25.2777 14.0489 25.1371 13.4923 24.8615 12.941ZM5.52358 39.3645L5.38846 39.505C7.17741 42.964 9.53385 45.8717 12.7064 48.0822C12.7064 47.8066 12.5713 47.5309 12.4308 47.2553C12.0146 46.423 11.4633 45.4555 11.1877 44.6232C10.7715 43.1045 9.80948 41.9965 8.42589 41.3047C7.31793 40.8886 6.49101 40.0562 5.52358 39.3645ZM15.6087 29.6793C15.4682 29.5442 15.4682 29.4036 15.4682 29.4036C15.4682 29.2685 15.4682 29.128 15.4682 29.128C15.4682 28.1606 15.4682 28.1606 14.6413 28.02C13.3928 27.7444 12.0146 27.6039 10.631 27.4688C10.4959 27.4688 10.3554 27.4688 10.0851 27.6039C10.7715 28.7118 15.1925 31.479 16.8464 31.7547C16.9869 31.2034 16.9869 30.6521 17.1274 30.236C16.7113 29.8198 16.16 29.6793 15.6087 29.6793ZM40.8864 50.0225C40.8864 49.8819 40.8864 49.8819 40.8864 49.7414C39.2271 49.7414 37.7084 49.8819 36.0492 50.0225C35.7735 50.0225 35.4925 50.2981 35.2223 50.4332C33.9792 51.2655 32.7307 52.0979 31.6336 52.7897C31.493 52.9248 31.3525 53.0653 31.0769 53.3409C34.671 52.9248 37.9841 51.8168 40.8864 50.0225ZM20.9918 5.88248C21.2728 5.74737 21.5484 5.60685 21.6836 5.33121C21.9646 5.05557 21.9646 4.63941 21.5484 4.36377C21.1323 4.08273 20.7161 3.67197 20.3 3.39093C20.1648 3.25581 20.0243 3.25581 19.8892 3.25581C19.3379 3.39093 18.7866 3.53145 18.23 3.94761C19.2028 4.77453 20.1648 5.33121 20.9918 5.88248ZM33.2874 20.9669C32.7307 20.1346 32.1794 19.9941 31.3525 19.9941C30.8012 19.9941 30.5256 20.4103 30.3851 20.8264C30.25 21.3777 30.8012 21.3777 31.0769 21.5182C31.6336 22.0695 31.9092 21.7938 32.4551 21.3777C32.7307 21.3777 33.0118 21.2426 33.2874 20.9669ZM38.5353 23.318C38.2597 23.0423 37.9841 22.6262 37.7084 22.4856C37.5679 22.3505 37.1571 22.4856 37.0166 22.6262C36.8761 22.7613 37.0166 23.0423 37.0166 23.318C37.2923 23.8692 37.7084 23.8692 38.5353 23.318ZM32.32 23.1774C32.32 23.0423 32.32 23.0423 32.32 22.9018C32.0443 22.9018 31.9092 22.9018 31.6336 22.7613V22.9018C31.9092 23.0423 32.1794 23.1774 32.32 23.1774Z" fill="#F04927"/>
<path d="M193.925 31.2034C193.925 30.9277 194.06 30.6521 194.06 30.5116C194.06 25.9446 194.06 21.5182 194.06 16.9513C194.06 15.0164 193.785 14.8759 191.855 14.7407C191.574 14.7407 191.163 14.7407 190.882 14.6002C190.607 14.4597 190.191 14.1841 190.191 13.9084C190.055 13.4923 190.055 12.941 190.191 12.3843C190.191 11.9736 190.607 11.6925 191.023 11.5574C191.298 11.5574 191.439 11.4169 191.715 11.4169C194.336 11.4169 197.098 11.4169 199.724 11.4169C201.108 11.4169 201.8 12.6653 201.108 13.9084C200.967 14.1841 200.551 14.4597 200.141 14.6002C199.859 14.7407 199.449 14.7407 199.168 14.7407C198.481 14.8759 198.206 15.1515 198.206 15.8433C198.206 16.6756 198.071 17.5079 198.071 18.3349C198.071 26.5013 198.071 34.8029 198.071 42.964C198.071 43.3801 198.071 43.6558 198.071 44.0719C198.071 44.6232 197.789 45.1799 197.238 45.315C196.546 45.4555 195.995 45.4555 195.444 45.0394C195.309 44.8988 195.168 44.6232 195.028 44.4881C191.439 39.3644 187.845 34.3867 184.256 29.2685C183.013 27.4688 181.77 25.669 180.522 23.8692C180.386 23.7341 180.246 23.4531 179.97 23.1774C179.97 23.5936 179.97 23.8692 179.97 24.1449C179.97 28.9875 179.97 33.8301 179.97 38.6726C179.97 39.2293 179.97 39.7806 179.97 40.3373C180.111 41.5804 180.386 41.856 181.63 41.9965C182.046 41.9965 182.462 41.9965 182.737 41.9965C183.699 41.9965 184.116 42.5478 184.116 43.5152C184.116 44.4881 183.84 45.0394 182.878 45.1799C182.462 45.1799 182.046 45.1799 181.63 45.1799C179.284 45.1799 176.933 45.1799 174.447 45.1799C173.62 45.1799 172.928 45.1799 172.377 44.3476C171.961 45.0394 171.409 45.1799 170.717 45.1799C169.064 45.1799 167.54 45.1799 165.886 45.1799C165.053 45.1799 164.502 44.8988 163.951 44.0719C161.465 39.7806 158.838 35.6298 156.217 31.479C156.076 31.2034 155.801 30.9277 155.525 30.5116C155.384 30.7872 155.384 30.9277 155.384 30.9277C155.384 33.8301 155.384 36.7378 155.384 39.6455C155.384 39.7806 155.384 39.9211 155.384 40.0562C155.525 41.7209 155.801 41.856 157.325 41.856C157.46 41.856 157.6 41.856 157.6 41.856C158.979 41.856 159.67 42.8234 159.114 44.207C158.979 44.6232 158.703 44.8988 158.146 45.0394C157.876 45.0394 157.46 45.0394 157.184 45.0394C153.59 45.0394 150.136 45.0394 146.548 45.0394C146.407 45.0394 146.272 45.0394 146.272 45.0394C144.894 45.0394 144.062 43.6558 144.894 42.5478C145.029 42.2722 145.58 41.9965 145.856 41.9965C146.272 41.856 146.683 41.9965 147.099 41.9965C148.066 41.856 148.483 41.5804 148.483 40.6129C148.483 39.9211 148.618 39.2293 148.618 38.5375C148.618 31.8952 148.618 25.2528 148.618 18.4754C148.618 17.7836 148.618 17.0918 148.483 16.4C148.348 15.4325 148.207 15.1515 147.24 15.0164C146.683 15.0164 146.272 15.0164 145.715 14.8759C144.894 14.7407 144.613 14.3246 144.613 13.2166C144.613 12.2492 145.029 11.833 145.856 11.833C146.132 11.833 146.407 11.833 146.548 11.833C150.277 11.833 153.871 11.833 157.6 11.833C159.254 11.833 160.778 11.9736 162.292 12.5248C165.745 13.6328 167.956 15.8433 168.507 19.4428C169.064 22.9018 167.815 25.8095 164.918 27.8849C163.951 28.5767 162.983 28.9875 162.016 29.6793C162.016 29.8198 162.156 29.9603 162.292 30.0954C164.226 33.2788 166.302 36.4621 168.231 39.6455C168.507 40.0562 168.783 40.6129 169.064 41.0291C169.474 41.5804 169.891 41.856 170.577 41.9965C170.993 41.9965 171.544 42.4127 172.101 42.5478C172.377 41.9965 173.068 41.856 173.755 41.856C174.998 41.856 175.279 41.4398 175.414 40.1968C175.414 39.6455 175.414 39.0888 175.414 38.5375C175.414 31.7547 175.414 24.9772 175.414 18.1997C175.414 16.5351 174.171 15.1515 172.652 14.8759C171.409 14.7407 170.853 13.2166 171.544 12.2492C171.685 11.9736 172.101 11.833 172.517 11.833C174.722 11.833 176.933 11.833 179.143 11.833C179.835 11.833 180.111 12.3843 180.386 12.8005C182.462 15.7082 184.532 18.6105 186.602 21.5182C188.677 24.4259 190.607 27.3282 192.677 30.0954C193.368 30.5116 193.644 30.7872 193.925 31.2034ZM155.66 26.5013C156.492 26.3608 157.325 26.3608 158.011 26.2203C159.805 25.8095 161.054 24.7016 161.6 22.7613C162.016 21.2426 161.875 19.7185 161.184 18.1997C160.362 16.2595 158.011 15.0164 155.66 15.9838C155.66 19.4428 155.66 22.9018 155.66 26.5013Z" fill="black"/>
<path d="M79.4163 53.8922C79.2866 54.3084 79.1461 54.584 79.0055 54.8651C78.8704 55.2758 78.5948 55.4163 78.1786 55.4163C77.903 55.4163 77.6219 55.4163 77.4868 55.4163C67.5422 55.4163 57.7327 55.4163 47.7935 55.4163C47.3774 55.4163 46.8261 55.4163 46.2694 55.2758C46.4099 54.7245 46.5451 54.3084 46.6856 53.7571C47.1017 53.7571 47.5179 53.7571 47.9233 53.7571C49.723 53.8922 51.6579 53.8922 53.4522 53.4815C55.6627 53.0653 57.1869 51.8168 58.284 49.7414C59.5325 47.2553 60.3594 44.6232 60.9107 41.856C62.2943 35.7703 63.6725 29.6793 65.1912 23.4531C66.164 19.4428 67.2612 15.4325 68.234 11.4169C68.5097 10.3089 68.7853 9.06584 68.9258 7.82276C68.9258 7.54172 69.0609 7.13096 69.0609 6.84992C69.0609 5.46632 68.5097 4.49889 67.1261 4.22325C65.883 4.36377 64.4994 4.22325 63.2617 4.22325C60.9107 4.22325 58.7002 4.91505 56.3545 5.60685C49.8635 7.68224 44.0643 10.7251 39.0866 15.5677C38.6704 15.9838 38.2597 16.1243 37.7084 15.8433C37.0166 15.5677 36.1843 15.292 35.3574 15.1515C35.4925 14.8759 35.633 14.6002 35.7735 14.3246C37.1571 12.2492 38.5353 10.1738 39.9189 7.95788C40.8864 6.43916 41.8484 4.91505 42.6807 3.25581C42.9564 2.83965 43.232 2.42349 43.5076 2.00733C43.7833 1.45605 44.34 1.18042 44.8858 1.31553C45.1615 1.31553 45.4425 1.31553 45.5776 1.31553C65.1912 1.31553 84.8102 1.31553 104.424 1.31553C104.97 1.31553 105.386 1.31553 105.937 1.31553C106.769 6.15812 107.602 10.8656 108.423 15.7082C107.461 15.9838 106.629 16.1243 105.661 16.4C105.386 16.1243 105.245 15.8433 105.11 15.5677C100.97 9.34148 95.3006 5.74737 87.9827 4.77453C86.3235 4.49889 84.6696 4.49889 83.0104 4.77453C80.9404 5.05557 79.5568 6.29864 79.0055 8.37404C78.5948 10.0333 78.1786 11.6925 77.7625 13.4923C75.1412 24.0098 72.655 34.6624 70.023 45.1799C69.6176 46.6986 69.3366 48.2227 69.4771 49.7414C69.6176 51.2655 70.304 52.5086 71.8227 53.0653C72.9307 53.4815 74.1684 53.7571 75.2763 53.8922C76.6545 53.7571 77.903 53.7571 79.4163 53.8922Z" fill="#F04927"/>
<path d="M324.453 15.8433C323.205 15.8433 322.097 15.7082 320.859 15.8433C319.476 15.9838 318.784 16.8161 318.643 18.1997C318.508 18.751 318.508 19.3023 318.508 19.859C318.368 20.6859 317.822 21.102 316.854 20.9669C316.022 20.9669 315.471 20.5508 315.471 19.7185C315.471 17.5079 315.471 15.1515 315.471 12.941C315.471 12.1087 315.882 11.6925 316.714 11.6925C316.99 11.6925 317.265 11.6925 317.546 11.6925C324.313 11.6925 331.215 11.6925 337.981 11.6925C338.538 11.6925 339.089 11.833 339.646 11.9736C339.781 11.9736 339.922 12.1087 340.057 11.9736C340.884 11.5574 341.851 11.6925 342.819 11.6925C348.623 11.6925 354.282 11.6925 360.081 11.6925C360.362 11.6925 360.773 11.6925 361.054 11.6925C361.746 11.833 362.156 12.1087 362.156 12.8005C362.292 15.0164 362.432 17.2269 362.567 19.4428C362.567 20.1346 362.156 20.5508 361.465 20.6859C360.497 20.8264 359.805 20.5508 359.53 19.859C359.389 19.5833 359.389 19.1672 359.254 18.751C359.254 18.4754 359.114 18.0592 359.114 17.7836C358.703 16.1243 358.152 15.7082 356.352 15.7082C354.282 15.7082 352.212 15.7082 350.136 15.7082C350.136 18.8915 350.136 22.0695 350.136 25.2528C351.796 25.2528 353.59 25.3934 355.249 25.2528C356.352 25.2528 356.768 24.561 356.909 23.4531C356.909 23.0423 356.909 22.4856 356.909 22.0695C357.044 21.102 357.46 20.8264 358.427 20.8264C359.389 20.8264 359.946 21.102 360.081 21.9344C360.081 22.21 360.081 22.4856 360.081 22.6262C360.081 25.8095 360.081 28.8524 360.081 32.0357C360.081 32.1708 360.081 32.3113 360.081 32.4465C359.946 33.5544 359.53 33.9706 358.568 33.9706C357.6 33.9706 357.044 33.5544 356.909 32.4465C356.909 31.7547 356.768 31.2034 356.627 30.5116C356.492 29.8198 355.941 29.5442 355.249 29.5442C354.422 29.5442 353.731 29.5442 352.898 29.5442C351.936 29.5442 351.104 29.5442 350.136 29.5442C349.861 30.3711 349.861 39.2293 350.136 40.748C350.412 40.748 350.693 40.8886 350.969 40.8886C352.487 40.8886 354.006 40.8886 355.53 40.8886C357.735 40.8886 359.389 39.9211 360.362 37.8457C360.638 37.1539 360.913 36.4621 361.33 35.6298C361.746 34.6624 362.292 34.3867 363.4 34.8029C364.367 35.0785 364.643 35.6298 364.367 36.5973C363.675 38.9537 362.843 41.3047 362.156 43.6558C361.881 44.3476 361.465 44.6232 360.773 44.7637C360.497 44.7637 360.222 44.7637 359.946 44.7637C353.866 44.7637 347.791 44.7637 341.716 44.7637C341.435 44.7637 341.3 44.7637 341.024 44.7637C339.646 44.6232 338.954 43.5152 339.646 42.2722C339.781 41.9965 340.332 41.7209 340.608 41.5804C341.024 41.4398 341.435 41.5804 341.851 41.5804C342.819 41.4398 343.1 41.3047 343.235 40.3373C343.235 40.0562 343.235 39.6455 343.235 39.3644C343.235 31.8952 343.235 24.4259 343.235 16.9513C343.235 16.8161 343.235 16.5351 343.235 16.4C343.1 15.0164 342.959 14.8759 341.575 14.7407C341.024 14.7407 340.608 14.7407 340.057 14.6002C340.057 14.8759 339.922 15.1515 339.922 15.4325C339.922 16.6756 339.922 18.0592 339.922 19.3023C339.922 20.6859 338.538 21.3777 337.43 20.6859C337.154 20.5508 336.884 20.1346 336.884 19.7185C336.744 19.3023 336.744 18.751 336.744 18.1997C336.603 16.5351 335.636 15.7082 333.976 15.5677C333.014 15.5677 331.906 15.5677 330.804 15.5677C330.804 15.9838 330.804 16.4 330.804 16.6756C330.804 23.8692 330.804 30.9277 330.804 38.1214C330.804 38.8132 330.804 39.6455 330.939 40.3373C331.074 41.1642 331.355 41.4398 332.182 41.5804C332.598 41.5804 333.014 41.5804 333.431 41.5804C334.393 41.7209 334.809 42.1316 334.809 43.1045C334.809 44.0719 334.393 44.6232 333.566 44.7637C333.431 44.7637 333.15 44.7637 333.014 44.7637C329.42 44.7637 325.832 44.7637 322.097 44.7637C321.962 44.7637 321.821 44.7637 321.686 44.7637C320.719 44.6232 320.308 44.207 320.308 43.1045C320.308 41.9965 320.719 41.5804 321.686 41.5804C321.962 41.5804 322.238 41.5804 322.513 41.5804C323.762 41.5804 324.037 41.3047 324.172 40.0562C324.172 39.3644 324.313 38.8132 324.313 38.1214C324.313 30.9277 324.313 23.8692 324.313 16.6756C324.453 16.6756 324.453 16.2595 324.453 15.8433Z" fill="black"/>
<path d="M116.298 2.98017C116.298 2.69913 116.298 2.56401 116.298 2.42349C116.298 2.14785 116.298 1.87221 116.298 1.45605C116.579 1.45605 116.854 1.31553 117.125 1.31553C117.541 1.31553 117.817 1.31553 118.233 1.31553C210.22 1.31553 302.354 1.31553 394.336 1.31553C394.893 1.31553 395.584 1.31553 396.276 1.31553C396.276 1.87221 396.276 2.42349 396.276 2.98017C302.9 2.98017 209.669 2.98017 116.298 2.98017Z" fill="#F04927"/>
<path d="M396.136 53.8922C396.136 54.4489 396.136 54.865 396.136 55.2758C395.168 55.5568 117.4 55.5568 116.298 55.2758C116.298 54.865 116.298 54.3084 116.298 53.7571C209.528 53.8922 302.759 53.8922 396.136 53.8922Z" fill="#F04927"/>
<path d="M144.478 28.4362C144.337 31.2034 143.921 33.9706 142.954 36.5973C141.992 39.0888 140.608 41.1642 138.679 42.964C134.668 46.6986 126.518 46.9742 121.962 41.4398C119.751 38.6726 118.508 35.4947 117.957 32.0357C117.4 27.8849 117.676 23.8692 119.06 19.9941C120.032 17.3674 121.546 15.292 123.616 13.4923C127.485 10.1738 135.36 9.75764 139.776 15.0164C141.992 17.6431 143.37 20.8264 143.921 24.1449C144.202 25.5285 144.337 27.0526 144.478 28.4362ZM137.014 28.8524C136.879 26.2203 136.738 24.1449 136.463 21.9344C136.322 20.1346 135.776 18.3349 134.668 16.8161C133.009 14.4597 128.593 14.3246 126.934 17.3674C126.383 18.4754 125.967 19.5833 125.691 20.6859C125.14 23.0423 124.999 25.5285 124.999 28.02C124.999 30.7872 125.14 33.5544 125.691 36.3216C125.967 37.5701 126.383 38.8132 127.21 39.7806C128.869 42.4127 133.285 42.4127 134.944 39.6455C135.636 38.5375 136.187 37.4296 136.322 36.046C136.603 33.4193 136.879 30.9278 137.014 28.8524Z" fill="black"/>
<path d="M380.111 22.6262C381.905 20.4103 384.807 15.9838 384.943 15.0164C384.532 15.0164 383.981 14.8759 383.564 14.8759C382.597 14.7407 382.181 14.3246 382.321 13.3571C382.321 12.3843 382.737 11.833 383.705 11.833C386.742 11.833 389.645 11.833 392.682 11.833C393.649 11.833 393.92 12.3843 394.06 13.2166C394.06 14.3246 393.785 14.7407 392.823 14.8759C392.542 14.8759 392.266 14.8759 391.99 14.8759C391.298 14.8759 390.747 15.292 390.196 15.7082C389.92 15.9838 389.78 16.2595 389.504 16.5351C387.299 19.859 384.943 23.1774 382.597 26.5013C383.013 27.3282 383.564 28.2957 383.981 29.128C385.915 32.4465 387.985 35.9055 389.92 39.2293C390.196 39.7806 390.607 40.3373 391.023 40.8886C391.439 41.4398 391.99 41.856 392.823 41.856C393.785 41.856 394.201 42.5478 394.201 43.5152C394.201 44.4881 393.649 45.0394 392.682 45.0394C390.882 45.0394 389.088 45.0394 387.299 45.0394C385.634 45.0394 383.981 45.0394 382.321 45.0394C381.213 45.0394 380.667 44.4881 380.803 43.3801C380.803 42.4127 381.213 41.9965 382.321 41.856C382.737 41.856 383.013 41.856 383.429 41.856C383.154 40.8886 380.111 35.4947 378.452 33.1383C377.906 33.5544 373.344 40.1968 372.652 41.7209C373.068 41.856 373.344 41.856 373.76 41.9965C375.138 42.1316 375.83 43.2396 375.138 44.4881C374.863 45.0394 374.312 45.1799 373.76 45.1799C372.652 45.1799 371.55 45.1799 370.442 45.1799C369.058 45.1799 367.545 45.1799 366.161 45.1799C364.783 45.1799 364.091 44.207 364.643 42.8234C364.783 42.4127 365.199 41.9965 365.605 41.9965C367.129 41.9965 367.821 41.0291 368.512 40.0562C369.615 38.5375 370.582 37.0134 371.55 35.4947C372.928 33.4193 374.312 31.3439 375.83 29.2685C375.83 29.2685 375.83 29.128 375.965 28.9875C375.83 28.7118 375.69 28.2957 375.414 28.02C373.485 24.7016 371.55 21.3777 369.615 18.0592C369.199 17.3674 368.783 16.8161 368.372 16.2595C367.821 15.5677 367.129 15.1515 366.296 15.1515C366.161 15.1515 366.021 15.1515 366.021 15.1515C364.783 15.0164 364.091 13.7679 364.783 12.6654C364.918 12.3843 365.334 12.1087 365.605 12.1087C365.886 11.9736 366.296 12.1087 366.713 12.1087C370.031 12.1087 373.485 12.1087 376.798 12.1087C376.938 12.1087 377.073 12.1087 377.214 12.1087C378.727 12.1087 379.008 12.8005 378.868 14.0489C378.868 14.8759 378.452 15.1515 377.63 15.292C377.349 15.292 377.073 15.292 376.938 15.292C376.657 15.292 376.522 15.4325 376.106 15.4325C376.246 15.7082 376.246 16.1243 376.382 16.4C377.49 18.1997 378.727 20.2751 380.111 22.6262Z" fill="black"/>
<path d="M212.571 40.748C212.982 40.748 213.263 40.8886 213.539 40.8886C215.052 40.8886 216.576 40.8886 218.095 40.8886C220.305 40.8886 221.959 39.9211 222.792 37.9808C223.067 37.2891 223.483 36.5973 223.759 35.7703C224.17 34.8029 224.586 34.5219 225.829 34.938C226.796 35.2137 227.072 35.7703 226.796 36.7378C226.105 39.0888 225.413 41.4398 224.721 43.7963C224.445 44.6232 224.029 44.8988 223.208 44.8988C222.932 44.8988 222.651 44.8988 222.375 44.8988C216.3 44.8988 210.361 44.8988 204.286 44.8988C204.005 44.8988 203.87 44.8988 203.594 44.8988C202.211 44.8988 201.524 43.7963 202.07 42.4127C202.346 41.9965 202.762 41.7209 203.178 41.7209C203.594 41.7209 204.005 41.7209 204.421 41.7209C205.383 41.5804 205.524 41.4398 205.799 40.4724C205.799 40.1968 205.799 39.7806 205.799 39.505C205.799 32.0357 205.799 24.4259 205.799 16.9513C205.799 16.8161 205.799 16.5351 205.799 16.4C205.664 15.1515 205.524 14.8759 204.145 14.7407C203.729 14.7407 203.454 14.7407 203.037 14.6002C202.07 14.4597 201.8 13.9084 201.8 12.941C201.8 12.1087 202.211 11.6925 203.037 11.5574C203.313 11.5574 203.594 11.5574 203.729 11.5574C209.945 11.5574 216.025 11.5574 222.24 11.5574C222.516 11.5574 222.792 11.5574 223.067 11.5574C223.759 11.6925 224.029 11.9736 224.17 12.5248C224.31 12.941 224.31 13.3571 224.31 13.6328C224.445 15.292 224.445 17.0918 224.586 18.751C224.721 19.9941 224.17 20.5508 222.651 20.4102C222.1 20.4102 221.684 19.9941 221.548 19.4428C221.408 19.1672 221.408 18.751 221.408 18.3349C221.267 17.9187 221.267 17.5079 220.992 16.9513C220.722 15.9838 219.889 15.4325 218.787 15.4325C216.576 15.4325 214.501 15.4325 212.29 15.4325C212.015 16.1243 212.015 22.7613 212.155 24.9772C212.431 24.9772 212.847 24.9772 213.123 24.9772C214.231 24.9772 215.468 24.9772 216.576 24.9772C218.23 24.9772 218.787 24.2854 218.787 22.6262C218.787 22.3505 218.787 22.21 218.787 21.9344C218.787 20.5508 219.889 19.859 221.132 20.5508C221.408 20.6859 221.684 20.9669 221.824 21.3777C221.959 21.7938 221.959 22.21 221.959 22.4856C221.959 25.5285 221.959 28.5767 221.959 31.479C221.959 31.6195 221.959 31.8952 221.959 32.0357C221.959 33.1383 221.408 33.5544 220.446 33.5544C219.478 33.5544 218.922 33.0031 218.922 31.8952C218.922 31.2034 218.787 30.6521 218.646 29.9603C218.506 29.4036 218.095 28.9875 217.544 28.9875C215.744 28.9875 213.955 28.9875 212.155 28.9875C212.571 33.4193 212.571 37.0134 212.571 40.748Z" fill="black"/>
<path d="M290.744 34.6624C288.815 34.6624 286.875 34.6624 285.086 34.6624C284.945 34.938 284.805 35.0785 284.805 35.3542C284.253 37.1539 283.837 38.8132 283.291 40.6129C283.016 41.5804 283.151 41.856 284.253 41.856C284.394 41.856 284.529 41.856 284.529 41.856C285.913 41.9965 286.469 42.964 286.053 44.207C285.778 44.7637 285.221 45.0394 284.67 45.0394C283.837 45.0394 283.016 45.0394 282.183 45.0394C280.524 45.0394 278.87 45.0394 277.352 45.0394C275.968 45.0394 275.417 44.4881 275.552 43.1045C275.692 42.2722 275.968 41.856 276.8 41.856C278.038 41.856 278.73 41.1642 279.006 40.0562C279.562 38.6726 279.973 37.1539 280.389 35.7703C282.6 28.1606 284.945 20.4102 287.156 12.8005C287.156 12.6653 287.291 12.5248 287.291 12.2492C287.567 11.2818 287.983 10.8656 288.95 10.8656C289.782 10.8656 290.193 11.1412 290.469 12.1087C292.404 18.1997 294.339 24.1449 296.268 30.2359C297.1 33.0031 298.068 35.7703 298.9 38.5375C299.176 39.2293 299.446 39.9211 299.722 40.6129C299.997 41.3047 300.554 41.5804 301.246 41.5804C302.489 41.5804 302.9 42.1316 302.9 43.3801C302.9 44.207 302.489 44.6232 301.662 44.7637C301.521 44.7637 301.381 44.7637 301.381 44.7637C298.208 44.7637 294.89 44.7637 291.712 44.7637C290.328 44.7637 289.642 43.5152 290.328 42.2722C290.469 41.9965 291.02 41.7209 291.301 41.5804C291.577 41.4398 291.852 41.5804 292.128 41.4398C292.544 41.4398 292.82 41.1642 292.685 40.748C292.685 40.4724 292.544 40.0562 292.544 39.7806C291.852 38.2619 291.301 36.4621 290.744 34.6624ZM289.366 30.5116C288.815 28.7118 288.258 27.0526 287.848 25.3934C287.707 25.3934 287.707 25.3934 287.567 25.3934C287.156 27.0526 286.605 28.7118 286.188 30.3711C287.291 30.5116 288.258 30.5116 289.366 30.5116Z" fill="black"/>
<path d="M237.568 40.748C237.844 40.748 237.984 40.8886 238.125 40.8886C240.195 40.8886 242.129 40.8886 244.199 40.748C245.443 40.6129 246.545 39.9211 247.102 38.8132C247.653 37.7052 248.069 36.7378 248.485 35.6298C248.896 34.3867 249.723 34.1111 250.831 34.6624C251.523 34.938 251.798 35.4947 251.523 36.1865C250.831 38.8132 250.139 41.4398 249.447 43.9314C249.307 44.4881 248.896 44.7637 248.345 44.8988C247.929 44.8988 247.653 44.8988 247.237 44.8988C241.162 44.8988 235.222 44.8988 229.147 44.8988C228.866 44.8988 228.731 44.8988 228.456 44.8988C227.348 44.8988 226.796 44.207 226.937 43.1045C227.072 42.2722 227.348 41.856 228.315 41.7209C228.866 41.7209 229.283 41.7209 229.839 41.7209C230.385 41.7209 230.801 41.3047 230.936 40.748C230.936 40.3373 231.077 39.9211 231.077 39.6455C231.077 32.1708 231.077 24.7016 231.077 17.2269V17.0918C231.077 15.1515 230.801 15.0164 228.866 14.8759C228.731 14.8759 228.591 14.8759 228.456 14.8759C227.899 14.8759 227.348 14.7407 227.207 14.0489C226.937 13.3571 226.937 12.6653 227.348 12.1087C227.483 11.9736 227.764 11.833 228.039 11.6925C228.315 11.5574 228.731 11.6925 229.007 11.6925C232.601 11.6925 236.055 11.6925 239.643 11.6925C239.778 11.6925 239.914 11.6925 240.054 11.6925C241.297 11.6925 241.854 12.5248 241.578 13.6328C241.438 14.3246 241.162 14.7407 240.33 14.7407C239.778 14.7407 239.368 14.7407 238.816 14.8759C237.984 15.0164 237.708 15.1515 237.568 15.9838C237.568 16.2595 237.433 16.6756 237.433 16.9513C237.433 24.561 237.433 32.1708 237.433 39.7806C237.568 40.0562 237.568 40.3373 237.568 40.748Z" fill="black"/>
<path d="M262.294 40.748C262.57 40.748 262.705 40.8886 262.846 40.8886C264.78 40.8886 266.85 40.8886 268.785 40.748C270.169 40.6129 271.131 40.0562 271.682 38.8132C272.239 37.7052 272.655 36.5973 273.066 35.4947C273.482 34.3867 274.039 34.1111 275.136 34.5219C275.968 34.938 276.244 35.3542 275.968 36.3216C275.417 38.1214 275.001 40.0562 274.444 41.856C274.309 42.5478 274.039 43.1045 273.898 43.7963C273.622 44.6232 273.347 44.8988 272.374 45.0394C272.098 45.0394 271.963 45.0394 271.682 45.0394C265.607 45.0394 259.532 45.0394 253.452 45.0394C253.177 45.0394 253.036 45.0394 252.76 45.0394C251.658 45.0394 251.107 44.3476 251.247 43.2396C251.382 42.4127 251.658 41.9965 252.625 41.856C253.036 41.856 253.452 41.856 253.868 41.856C254.836 41.7209 254.976 41.5804 255.111 40.6129C255.111 40.1968 255.111 39.9211 255.111 39.505C255.111 32.0357 255.111 24.7016 255.111 17.2269C255.111 16.8161 255.111 16.4 254.976 15.9838C254.836 15.1515 254.56 15.0164 253.868 14.8759C253.317 14.8759 252.901 14.8759 252.344 14.7407C251.382 14.6002 251.107 14.1841 251.107 13.0761C251.107 12.1087 251.523 11.5574 252.485 11.5574C254.144 11.5574 255.798 11.5574 257.462 11.5574C259.668 11.5574 261.878 11.5574 264.089 11.5574C265.191 11.5574 265.748 12.2492 265.607 13.3571C265.467 14.1841 265.056 14.6002 264.229 14.7407C263.678 14.7407 263.262 14.7407 262.705 14.8759C262.154 14.8759 261.738 15.292 261.738 15.8433C261.608 16.2595 261.608 16.6756 261.608 16.9513C261.608 24.561 261.608 32.1708 261.608 39.7806C262.294 40.0562 262.294 40.4724 262.294 40.748Z" fill="black"/>
<path d="M111.461 49.4658C111.461 52.9248 108.699 55.5568 105.386 55.5568C102.073 55.5568 99.3109 52.7897 99.3109 49.4658C99.3109 46.0068 102.073 43.3801 105.526 43.3801C108.839 43.3801 111.461 46.1473 111.461 49.4658ZM105.386 54.8651C107.731 55.0002 110.769 53.0653 110.769 49.4658C110.909 46.5635 108.423 44.0719 105.386 43.9314C102.348 43.9314 99.8622 46.2824 99.8622 49.3307C100.003 52.5086 102.483 54.8651 105.386 54.8651Z" fill="#F04927"/>
<path d="M34.5305 42.5478C34.9466 43.6558 34.671 44.6232 33.8387 45.1799C33.0118 45.7312 32.0443 46.6986 30.8012 45.5906C31.0769 45.315 31.3525 45.0394 31.6336 44.7637C31.493 44.4881 31.493 44.207 31.3525 43.7963C31.9092 43.7963 32.5956 43.7963 33.0118 43.6558C33.563 43.3801 33.9792 42.964 34.5305 42.5478Z" fill="#F04927"/>
<path d="M103.591 50.1576C103.591 50.8494 103.591 51.6817 103.591 52.3735C103.591 52.9248 103.316 53.0653 102.764 52.9248C102.764 50.7143 102.764 48.6389 102.764 46.2824C104.148 46.1473 105.526 46.0068 106.769 46.4229C107.461 46.5635 108.007 47.1147 108.007 47.8065C108.148 48.6389 107.602 49.0496 107.045 49.4658C106.91 49.6063 106.769 49.6063 106.629 49.7414C107.045 50.2981 107.461 50.7143 107.731 51.2655C108.007 51.8168 108.148 52.3735 108.288 53.0653C107.731 53.3409 107.321 53.2004 107.186 52.6491C107.045 52.3735 107.045 52.0979 106.91 51.6817C106.494 50.2981 105.937 50.0225 104.553 50.0225C104.424 50.0225 104.148 50.0225 104.008 50.0225C103.867 49.8819 103.732 50.0225 103.591 50.1576ZM103.591 49.3307C104.553 49.4658 105.386 49.4658 106.218 49.1901C106.629 48.9145 107.045 48.6389 107.045 48.0822C107.045 47.5309 106.629 47.1147 106.218 46.8391C105.386 46.5635 104.553 46.4229 103.732 46.8391C103.591 47.666 103.591 48.3578 103.591 49.3307Z" fill="#F04927"/>
</svg>
