<svg width="15" height="22" viewBox="0 0 15 22" fill="none" xmlns="http://www.w3.org/2000/svg">
<path d="M7.5 0C3.36458 0 0 3.28982 0 7.33335C0 8.54722 0.310385 9.75077 0.900438 10.8183L7.08986 21.7637C7.17226 21.9096 7.32927 22 7.5 22C7.67073 22 7.82774 21.9096 7.91014 21.7637L14.1018 10.8147C14.6896 9.75077 15 8.54717 15 7.3333C15 3.28982 11.6354 0 7.5 0ZM7.5 11C5.43229 11 3.75002 9.35511 3.75002 7.33335C3.75002 5.31158 5.43229 3.6667 7.5 3.6667C9.56771 3.6667 11.25 5.31158 11.25 7.33335C11.25 9.35511 9.56771 11 7.5 11Z" fill="#F04927"/>
</svg>
