<svg width="34" height="34" viewBox="0 0 34 34" fill="none" xmlns="http://www.w3.org/2000/svg">
<path d="M17 34C26.3888 34 34 26.3888 34 17C34 7.61116 26.3888 0 17 0C7.61116 0 0 7.61116 0 17C0 26.3888 7.61116 34 17 34Z" fill="#F04927"/>
<path d="M20.5 10C18.128 8.77095 11 6.5 10 7C9.00006 7.5 8 14.5 8 14.5L19.6941 33.7867C27.204 32.5907 33.0735 26.4775 33.8993 18.8505C33.8993 18.8505 22.8719 11.2291 20.5 10Z" fill="#C62F10"/>
<path d="M24.65 21.3129L20.8806 18.8001C20.5382 18.5723 20.0781 18.647 19.8254 18.9714L18.7277 20.3825C18.492 20.6887 18.0678 20.7767 17.7297 20.5895C16.9849 20.1752 16.1041 19.7851 14.1607 17.8392C12.2174 15.8934 11.8248 15.0151 11.4105 14.2703C11.2233 13.9322 11.3113 13.508 11.6175 13.2723L13.0286 12.1746C13.353 11.9219 13.4277 11.4618 13.1999 11.1195L10.6871 7.35001C10.4545 7.00106 9.9888 6.89629 9.62915 7.11197L8.0529 8.05759C7.62692 8.30857 7.31378 8.71385 7.17836 9.1894C6.74732 10.761 6.66041 14.2278 12.2164 19.7838C17.7725 25.3398 21.239 25.2527 22.8106 24.8216C23.2861 24.6862 23.6914 24.3731 23.9424 23.947L24.888 22.3708C25.1037 22.0112 24.999 21.5455 24.65 21.3129Z" fill="white"/>
<path d="M17.2412 9.79303C20.1536 9.79626 22.5138 12.1564 22.517 15.0688C22.517 15.2402 22.656 15.3792 22.8274 15.3792C22.9988 15.3792 23.1377 15.2402 23.1377 15.0688C23.1341 11.8138 20.4963 9.17594 17.2412 9.17235C17.0699 9.17235 16.9309 9.31129 16.9309 9.48271C16.9309 9.65405 17.0698 9.79303 17.2412 9.79303Z" fill="white"/>
<path d="M17.2412 11.6551C19.1257 11.6573 20.6527 13.1844 20.655 15.0688C20.655 15.2402 20.7939 15.3791 20.9653 15.3791C21.1367 15.3791 21.2757 15.2402 21.2757 15.0688C21.2731 12.8417 19.4683 11.0369 17.2412 11.0343C17.0698 11.0343 16.9309 11.1733 16.9309 11.3447C16.9309 11.5161 17.0698 11.6551 17.2412 11.6551Z" fill="white"/>
<path d="M17.2412 13.5171C18.0978 13.5181 18.7919 14.2123 18.7929 15.0688C18.7929 15.2402 18.9319 15.3792 19.1033 15.3792C19.2747 15.3792 19.4136 15.2402 19.4136 15.0688C19.4123 13.8696 18.4404 12.8978 17.2412 12.8964C17.0699 12.8964 16.9309 13.0354 16.9309 13.2068C16.9309 13.3782 17.0698 13.5171 17.2412 13.5171Z" fill="white"/>
<path d="M19.6875 20.8733C19.4975 20.8156 19.8525 20.8224 19.6875 20.8733V20.8733Z" fill="white"/>
<path d="M17.0097 10.9857C17.008 10.9857 17.0064 10.9855 17.0048 10.9855C17.0032 10.9854 17.0053 10.9856 17.0097 10.9857Z" fill="white"/>
<path d="M17.0051 10.9853C17.0071 10.9853 17.0089 10.9855 17.0108 10.9855C17.1373 10.99 19.1937 11.0467 17.0051 10.9853Z" fill="white"/>
<path d="M20.4672 15.4739C20.4582 15.3176 20.4634 15.5023 20.4672 15.4739V15.4739Z" fill="white"/>
<path d="M19.0501 15.4187C19.0531 15.4185 19.056 15.417 19.0588 15.4167C19.0508 15.4167 19.0384 15.4169 19.0258 15.4173C19.034 15.4175 19.0415 15.4188 19.0501 15.4187Z" fill="white"/>
<path d="M19.0501 15.4187C19.0415 15.4189 19.034 15.4176 19.0257 15.4173C18.9845 15.4185 18.9419 15.4207 19.0501 15.4187Z" fill="white"/>
<path d="M19.0588 15.4167C19.0558 15.417 19.053 15.4185 19.0501 15.4187C19.0724 15.4172 19.0705 15.4167 19.0588 15.4167Z" fill="white"/>
</svg>
