<svg width="23" height="18" viewBox="0 0 23 18" fill="none" xmlns="http://www.w3.org/2000/svg">
<path d="M13.824 1.125H18.4325C19.0698 1.125 19.5847 1.62773 19.5847 2.25C19.5847 2.87227 19.0698 3.375 18.4325 3.375H14.3425C14.1553 4.28203 13.518 5.03086 12.6719 5.38945V15.75H18.4325C19.0698 15.75 19.5847 16.2527 19.5847 16.875C19.5847 17.4973 19.0698 18 18.4325 18H11.5198H4.60706C3.96979 18 3.45494 17.4973 3.45494 16.875C3.45494 16.2527 3.96979 15.75 4.60706 15.75H10.3677V5.38945C9.52159 5.02734 8.88432 4.27852 8.6971 3.375H4.60706C3.96979 3.375 3.45494 2.87227 3.45494 2.25C3.45494 1.62773 3.96979 1.125 4.60706 1.125H9.21555C9.74121 0.442969 10.5765 0 11.5198 0C12.4631 0 13.2984 0.442969 13.824 1.125ZM15.8259 11.25H21.0392L18.4325 6.88359L15.8259 11.25ZM18.4325 14.625C16.1679 14.625 14.2849 13.4297 13.8961 11.8512C13.8024 11.4645 13.9321 11.0672 14.1373 10.7227L17.5649 4.98516C17.7449 4.68281 18.0761 4.5 18.4325 4.5C18.789 4.5 19.1202 4.68633 19.3002 4.98516L22.7278 10.7227C22.933 11.0672 23.0626 11.4645 22.969 11.8512C22.5802 13.4297 20.6972 14.625 18.4325 14.625ZM4.56385 6.88359L1.95717 11.25H7.17413L4.56385 6.88359ZM0.0309677 11.8512C-0.0626424 11.4645 0.0669715 11.0672 0.272194 10.7227L3.69976 4.98516C3.87978 4.68281 4.21102 4.5 4.56746 4.5C4.92389 4.5 5.25513 4.68633 5.43515 4.98516L8.86272 10.7227C9.06794 11.0672 9.19755 11.4645 9.10394 11.8512C8.7115 13.4297 6.8285 14.625 4.56385 14.625C2.29921 14.625 0.419809 13.4297 0.0309677 11.8512Z" />
</svg>
