<svg width="34" height="34" viewBox="0 0 34 34" fill="none" xmlns="http://www.w3.org/2000/svg">
<path d="M17 34C26.3888 34 34 26.3888 34 17C34 7.61116 26.3888 0 17 0C7.61116 0 0 7.61116 0 17C0 26.3888 7.61116 34 17 34Z" fill="#448EEB"/>
<path d="M33.995 16.6067L26.4485 9.07275L14.1562 24.056L23.007 32.9069C29.4311 30.4797 34 24.2738 34 17C34 16.8684 33.9979 16.7374 33.995 16.6067Z" fill="#2E6AB4"/>
<path d="M25.4812 8.86656C26.1589 8.60213 26.8595 9.19514 26.7107 9.90715L23.6713 24.4356C23.5293 25.1167 22.7291 25.4235 22.1682 25.0114L17.5799 21.6435L15.2412 24.0315C14.8302 24.4505 14.1216 24.2799 13.9452 23.7212L12.2579 18.3648L7.7348 17.0288C7.14066 16.8536 7.10633 16.0271 7.68214 15.8016L25.4812 8.86656ZM23.25 12.0903C23.448 11.9151 23.2179 11.606 22.9936 11.7457L13.2308 17.8004C13.0591 17.9068 12.9802 18.1164 13.0408 18.3098L14.3722 24.1562C14.3985 24.2455 14.5267 24.2329 14.5382 24.1402L14.8358 19.6847C14.8472 19.5748 14.8999 19.4741 14.9824 19.4009L23.25 12.0903Z" fill="white"/>
<path d="M22.9936 11.7457C23.218 11.606 23.4481 11.9151 23.2501 12.0903L14.9825 19.4009C14.9001 19.4741 14.8474 19.5748 14.836 19.6847L14.5383 24.1402C14.5269 24.2329 14.3987 24.2455 14.3723 24.1562L13.0409 18.3098C12.9802 18.1164 13.0593 17.9068 13.231 17.8004L22.9936 11.7457Z" fill="#9EC2E5"/>
<path d="M14.4204 24.2169C14.2052 24.1402 14.0231 23.9685 13.9453 23.7212L12.2579 18.3647L7.73486 17.0288C7.14072 16.8536 7.10639 16.0271 7.6822 15.8016L25.4812 8.86656C25.9185 8.69596 26.3661 8.88256 26.5871 9.22834C26.5458 9.16539 26.4966 9.10702 26.4417 9.05548L14.3665 18.9132V19.3447L14.3001 19.2967L14.3665 22.0144V24.1941C14.3837 24.2021 14.402 24.2089 14.4203 24.2146V24.2169H14.4204Z" fill="white"/>
<path d="M26.7302 9.6633C26.7336 9.74113 26.7279 9.82354 26.7107 9.90715L23.6713 24.4356C23.5293 25.1167 22.7291 25.4235 22.1682 25.0114L17.5799 21.6435L14.3665 19.3447V18.9132L26.4417 9.05542C26.4966 9.10695 26.5459 9.16532 26.5871 9.22828C26.5951 9.24202 26.6031 9.25457 26.6111 9.26719C26.6179 9.28094 26.626 9.29468 26.6329 9.30723C26.6397 9.32098 26.6466 9.33472 26.6523 9.34847C26.6592 9.36335 26.665 9.37709 26.6707 9.39197C26.6752 9.40458 26.681 9.41826 26.6855 9.4332C26.7004 9.47783 26.7118 9.52365 26.7199 9.57173C26.7245 9.60148 26.7279 9.6313 26.7302 9.6633Z" fill="#D1D1D1"/>
<path d="M17.5799 21.6435L15.2411 24.0315C15.2217 24.0509 15.2011 24.0704 15.1805 24.0876C15.1599 24.1048 15.1392 24.1197 15.1175 24.1346C15.1164 24.1357 15.1164 24.1357 15.1164 24.1357C15.0729 24.1643 15.0282 24.1883 14.9813 24.2078C14.9573 24.217 14.9344 24.2261 14.9103 24.2318C14.8107 24.2616 14.7088 24.2696 14.6081 24.2593C14.5818 24.2571 14.5554 24.2525 14.5303 24.2479C14.5268 24.2479 14.5234 24.2468 14.52 24.2457C14.4948 24.2388 14.4696 24.2319 14.4444 24.2239C14.4364 24.2216 14.4284 24.2193 14.4204 24.2147L14.3666 22.0145V19.3448L17.5799 21.6435Z" fill="#D1D1D1"/>
<path d="M15.1804 24.0875C15.1599 24.1047 15.1392 24.1207 15.1175 24.1356V24.1345C15.1393 24.1196 15.1599 24.1047 15.1804 24.0875Z" fill="#DADDE0"/>
<path d="M15.118 24.1345V24.1362C15.118 24.1362 15.118 24.1345 15.1163 24.1362C15.1163 24.1362 15.1163 24.1362 15.118 24.1345Z" fill="#DADDE0"/>
<path d="M14.9813 24.2078C15.0282 24.1883 15.0728 24.1643 15.1163 24.1357C15.0728 24.1642 15.027 24.1883 14.9813 24.2078Z" fill="#DADDE0"/>
<path d="M14.6081 24.2593C14.7088 24.2696 14.8107 24.2615 14.9103 24.2318C14.8382 24.2547 14.7637 24.265 14.6894 24.265C14.6665 24.265 14.6436 24.2639 14.6218 24.2615C14.6173 24.2616 14.6127 24.2616 14.6081 24.2593Z" fill="#DADDE0"/>
<path d="M14.6894 24.265C14.6665 24.265 14.6435 24.2639 14.6218 24.2615C14.6435 24.2639 14.6665 24.265 14.6894 24.265Z" fill="white"/>
<path d="M14.6081 24.2593C14.6127 24.2615 14.6173 24.2615 14.6219 24.2615C14.5978 24.2604 14.5761 24.2569 14.5532 24.2523C14.5715 24.2559 14.5898 24.2581 14.6081 24.2593Z" fill="white"/>
<path d="M14.6081 24.2593C14.5898 24.2581 14.5714 24.2558 14.5532 24.2524C14.5451 24.2513 14.5372 24.2502 14.5303 24.2478C14.5554 24.2524 14.5817 24.257 14.6081 24.2593Z" fill="#DADDE0"/>
<path d="M14.4444 24.2238C14.4696 24.2319 14.4948 24.2387 14.52 24.2456C14.5097 24.2433 14.4994 24.241 14.4891 24.2388C14.4845 24.2376 14.4799 24.2365 14.4765 24.2342C14.4661 24.2318 14.4547 24.2284 14.4444 24.2238Z" fill="#DADDE0"/>
<path d="M14.4891 24.2387C14.4994 24.2409 14.5097 24.2433 14.52 24.2455C14.5097 24.2444 14.4994 24.2421 14.4891 24.2387Z" fill="white"/>
<path d="M14.4444 24.2238C14.4547 24.2284 14.4662 24.2318 14.4765 24.2341C14.4593 24.2306 14.4422 24.2249 14.425 24.2181C14.4318 24.2204 14.4375 24.2227 14.4444 24.2238Z" fill="white"/>
<path d="M14.4444 24.2238C14.4376 24.2227 14.4318 24.2204 14.425 24.2181C14.4238 24.2192 14.4215 24.2181 14.4204 24.217V24.2147C14.4283 24.2192 14.4364 24.2215 14.4444 24.2238Z" fill="#DADDE0"/>
<path d="M14.3665 22.0144L14.4203 24.2146C14.402 24.2089 14.3837 24.202 14.3665 24.1941V22.0144Z" fill="#D1D1D1"/>
<path d="M14.3665 19.3447V22.0144L14.3001 19.2967L14.3665 19.3447Z" fill="#DADDE0"/>
<path d="M23.25 12.0903L14.9825 19.4008C14.9 19.4741 14.8474 19.5748 14.8359 19.6847L14.5388 24.1406C14.5274 24.2333 14.3991 24.2459 14.3717 24.1566L13.0409 18.3099C12.9802 18.1164 13.0592 17.9069 13.2309 17.8005L22.9936 11.7457C23.218 11.606 23.4481 11.9151 23.25 12.0903Z" fill="#ADBCC9"/>
</svg>
