<svg width="36" height="36" viewBox="0 0 36 36" fill="none" xmlns="http://www.w3.org/2000/svg">
<g clip-path="url(#clip0_400_987)">
<path d="M18 0C8.05883 0 0 8.05883 0 18C0 27.9411 8.05883 35.9999 18 35.9999C27.9411 35.9999 35.9999 27.9411 35.9999 18C35.9888 8.06353 27.9365 0.0112255 18 0Z" fill="#F04927"/>
<path d="M19.6609 6.03237C18.7441 5.11584 17.2579 5.11584 16.3411 6.03237L7.66978 14.713C6.2839 16.0993 6.2839 18.3464 7.66978 19.7327C9.074 21.0745 11.2852 21.0745 12.6894 19.7327L14.0981 18.324V27.3913C14.0981 29.5524 15.85 31.3043 18.0111 31.3043C20.1722 31.3043 21.9242 29.5524 21.9242 27.3913V18.324L23.3329 19.7327C24.7371 21.0745 26.9483 21.0745 28.3525 19.7327C29.7384 18.3464 29.7384 16.0993 28.3525 14.713L19.6609 6.03237Z" fill="#FAFAFA"/>
</g>
<defs>
<clipPath id="clip0_400_987">
<rect width="36" height="36" fill="white"/>
</clipPath>
</defs>
</svg>
