<svg width="34" height="34" viewBox="0 0 34 34" fill="none" xmlns="http://www.w3.org/2000/svg">
<path d="M17 34C26.3888 34 34 26.3888 34 17C34 7.61116 26.3888 0 17 0C7.61116 0 0 7.61116 0 17C0 26.3888 7.61116 34 17 34Z" fill="#6F3FAA"/>
<path d="M24.3751 9.32629C20.2372 8.32688 16.092 7.15786 11.8485 8.6431C9.10098 9.6734 9.10098 12.6499 9.21546 15.1684C9.21546 15.8552 8.41414 16.7711 8.75752 17.5724C9.44436 19.862 10.0168 22.1515 12.4208 23.2963C12.7643 23.5253 12.4208 23.9831 12.6498 24.3266C12.5353 24.3266 12.3063 24.4411 12.3063 24.5556C12.3063 25.1043 12.5526 25.9436 12.389 26.4847L19.6941 33.7867C27.204 32.5907 33.0735 26.4775 33.8993 18.8505L24.3751 9.32629Z" fill="#512D84"/>
<path d="M25.9932 11.9481L25.9876 11.9256C25.5334 10.0893 23.4856 8.1189 21.605 7.70897L21.5838 7.70459C18.542 7.12433 15.4577 7.12433 12.4166 7.70459L12.3948 7.70897C10.5148 8.1189 8.46689 10.0894 8.01207 11.9256L8.00702 11.9481C7.44549 14.5125 7.44549 17.1132 8.00702 19.6776L8.01207 19.7001C8.44756 21.458 10.3429 23.3379 12.1533 23.8549V25.9047C12.1533 26.6467 13.0574 27.0111 13.5715 26.4756L15.6484 24.3168C16.0989 24.342 16.5496 24.3561 17.0002 24.3561C18.5313 24.3561 20.0631 24.2113 21.5837 23.9212L21.6049 23.9168C23.4855 23.5069 25.5334 21.5363 25.9876 19.7001L25.9932 19.6777C26.5547 17.1132 26.5547 14.5126 25.9932 11.9481ZM24.3496 19.3058C24.0463 20.5039 22.4915 21.9932 21.2561 22.2684C19.6387 22.576 18.0085 22.7074 16.38 22.6623C16.3476 22.6614 16.3164 22.674 16.2939 22.6973C16.0628 22.9345 14.7775 24.254 14.7775 24.254L13.1647 25.9093C13.0467 26.0323 12.8395 25.9486 12.8395 25.7789V22.3832C12.8395 22.327 12.7995 22.2794 12.7444 22.2685C12.744 22.2684 12.7438 22.2684 12.7435 22.2683C11.508 21.9932 9.95372 20.5038 9.64992 19.3058C9.1445 16.9878 9.1445 14.6379 9.64992 12.32C9.95372 11.1219 11.508 9.63256 12.7435 9.35737C15.5681 8.82015 18.4321 8.82015 21.2561 9.35737C22.4922 9.63256 24.0464 11.1219 24.3497 12.32C24.8556 14.638 24.8556 16.9878 24.3496 19.3058Z" fill="white"/>
<path d="M19.6875 20.8733C19.4976 20.8156 19.3166 20.7769 19.1484 20.7072C17.4065 19.9845 15.8034 19.0522 14.5337 17.623C13.8116 16.8103 13.2464 15.8928 12.7687 14.9218C12.5421 14.4614 12.3512 13.9829 12.1565 13.5074C11.9791 13.0739 12.2405 12.6261 12.5157 12.2994C12.7739 11.9928 13.1063 11.7582 13.4662 11.5852C13.7471 11.4503 14.0242 11.5281 14.2293 11.7662C14.6728 12.281 15.0803 12.8221 15.4101 13.4188C15.6129 13.7858 15.5573 14.2344 15.1896 14.4842C15.1002 14.5449 15.0188 14.6162 14.9356 14.6847C14.8625 14.7448 14.7939 14.8055 14.7438 14.8869C14.6524 15.0357 14.648 15.2114 14.7068 15.3732C15.1602 16.619 15.9243 17.5879 17.1784 18.1098C17.3791 18.1933 17.5805 18.2904 17.8118 18.2635C18.1989 18.2183 18.3243 17.7936 18.5956 17.5717C18.8608 17.3549 19.1997 17.352 19.4853 17.5328C19.7711 17.7137 20.048 17.9077 20.3233 18.1039C20.5936 18.2965 20.8626 18.4848 21.1118 18.7044C21.3516 18.9155 21.4341 19.1924 21.2991 19.4788C21.0521 20.0035 20.6925 20.4398 20.1739 20.7185C20.0275 20.797 19.8526 20.8224 19.6875 20.8733C19.8526 20.8224 19.4976 20.8156 19.6875 20.8733Z" fill="white"/>
<path d="M17.0048 10.9853C19.2831 11.0492 21.1545 12.5612 21.5555 14.8137C21.6239 15.1975 21.6482 15.5899 21.6786 15.9795C21.6914 16.1433 21.5986 16.299 21.4218 16.3011C21.2392 16.3033 21.157 16.1505 21.1451 15.9868C21.1216 15.6626 21.1054 15.3369 21.0607 15.0155C20.8249 13.3182 19.4715 11.914 17.7821 11.6127C17.5279 11.5674 17.2678 11.5555 17.0102 11.5285C16.8475 11.5114 16.6343 11.5016 16.5982 11.2992C16.568 11.1295 16.7112 10.9944 16.8728 10.9857C16.9165 10.9831 16.9607 10.9852 17.0048 10.9853C19.2832 11.0492 16.9607 10.9852 17.0048 10.9853Z" fill="white"/>
<path d="M20.4672 15.4739C20.4634 15.5024 20.4615 15.5693 20.4448 15.6322C20.3844 15.8609 20.0375 15.8896 19.9577 15.6588C19.934 15.5903 19.9305 15.5124 19.9303 15.4387C19.9295 14.9561 19.8247 14.474 19.5813 14.0542C19.3312 13.6226 18.9489 13.2599 18.5007 13.0403C18.2297 12.9076 17.9366 12.8251 17.6395 12.776C17.5097 12.7545 17.3785 12.7416 17.248 12.7234C17.0899 12.7014 17.0054 12.6007 17.013 12.4449C17.02 12.2989 17.1267 12.1938 17.2858 12.2029C17.8086 12.2325 18.3137 12.3457 18.7786 12.5918C19.7238 13.0924 20.2638 13.8825 20.4215 14.9376C20.4286 14.9855 20.44 15.0328 20.4437 15.0807C20.4526 15.1991 20.4582 15.3176 20.4672 15.4739C20.4634 15.5023 20.4582 15.3176 20.4672 15.4739Z" fill="white"/>
<path d="M19.0501 15.4187C18.8595 15.4222 18.7575 15.3166 18.7378 15.142C18.7242 15.0202 18.7133 14.8966 18.6842 14.778C18.627 14.5445 18.5029 14.3281 18.3064 14.185C18.2137 14.1175 18.1086 14.0683 17.9986 14.0364C17.8588 13.996 17.7135 14.0071 17.5741 13.973C17.4226 13.9359 17.3388 13.8132 17.3627 13.6711C17.3843 13.5418 17.5101 13.4408 17.6515 13.4511C18.5348 13.5149 19.1661 13.9715 19.2562 15.0115C19.2627 15.0848 19.2701 15.1623 19.2538 15.2327C19.2258 15.3527 19.1368 15.4129 19.0501 15.4187C19.1368 15.4129 18.8595 15.4221 19.0501 15.4187Z" fill="white"/>
<path d="M25.9932 11.9481L25.9876 11.9256C25.733 10.8963 24.9774 9.82487 24.0314 9.00967L22.7525 10.1431C23.513 10.749 24.1646 11.5885 24.3497 12.3199C24.8557 14.6379 24.8557 16.9877 24.3497 19.3058C24.0464 20.5039 22.4915 21.9932 21.2562 22.2684C19.6388 22.576 18.0086 22.7074 16.3801 22.6623C16.3477 22.6614 16.3165 22.674 16.294 22.6973C16.0629 22.9345 14.7776 24.254 14.7776 24.254L13.1648 25.9093C13.0468 26.0323 12.8396 25.9487 12.8396 25.7789V22.3832C12.8396 22.327 12.7996 22.2794 12.7445 22.2685C12.7441 22.2685 12.7439 22.2684 12.7436 22.2684C12.0414 22.112 11.2367 21.5633 10.6167 20.899L9.35298 22.0189C10.1422 22.8774 11.1602 23.5715 12.1532 23.855V25.9049C12.1532 26.6468 13.0573 27.0112 13.5714 26.4758L15.6483 24.317C16.0988 24.3421 16.5494 24.3562 17.0001 24.3562C18.5312 24.3562 20.063 24.2114 21.5836 23.9213L21.6048 23.917C23.4854 23.5071 25.5333 21.5367 25.9875 19.7003L25.9931 19.6779C26.5547 17.1132 26.5547 14.5126 25.9932 11.9481Z" fill="#D1D1D1"/>
<path d="M19.6875 20.8733C19.4975 20.8156 19.8525 20.8224 19.6875 20.8733V20.8733Z" fill="white"/>
<path d="M21.1119 18.7042C20.8627 18.4848 20.5936 18.2964 20.3234 18.1038C20.0481 17.9076 19.7712 17.7135 19.4854 17.5326C19.1998 17.3519 18.861 17.3547 18.5957 17.5716C18.3244 17.7934 18.1991 18.2182 17.8119 18.2634C17.5807 18.2903 17.3792 18.1931 17.1785 18.1096C16.4069 17.7886 15.8215 17.2978 15.379 16.678L14.4387 17.5114C14.4706 17.5484 14.5011 17.5864 14.5336 17.6229C15.8034 19.052 17.4065 19.9844 19.1483 20.7071C19.3164 20.7768 19.4975 20.8156 19.6874 20.8731C19.4975 20.8154 19.8526 20.8223 19.6874 20.8731C19.8526 20.8223 20.0274 20.7968 20.1739 20.7183C20.6926 20.4396 21.0521 20.0032 21.2991 19.4786C21.4342 19.1923 21.3517 18.9154 21.1119 18.7042Z" fill="#D1D1D1"/>
<path d="M17.0097 10.9857C17.008 10.9857 17.0064 10.9855 17.0048 10.9855C17.0032 10.9854 17.0053 10.9855 17.0097 10.9857Z" fill="white"/>
<path d="M17.0051 10.9853C17.0071 10.9853 17.0089 10.9855 17.0108 10.9855C17.1373 10.99 19.1937 11.0467 17.0051 10.9853Z" fill="white"/>
<path d="M20.2728 12.3407L19.8719 12.6961C20.5019 13.309 20.9364 14.1214 21.0606 15.0153C21.1052 15.3369 21.1216 15.6625 21.145 15.9866C21.1569 16.1505 21.239 16.3033 21.4217 16.3011C21.5986 16.299 21.6913 16.1434 21.6785 15.9795C21.6481 15.5899 21.6238 15.1975 21.5555 14.8137C21.38 13.8277 20.9226 12.9836 20.2728 12.3407Z" fill="#D1D1D1"/>
<path d="M20.4213 14.9374C20.3065 14.1685 19.9875 13.5411 19.4577 13.0631L19.058 13.4174C19.2647 13.6009 19.4435 13.8164 19.5813 14.054C19.8246 14.4739 19.9295 14.956 19.9303 15.4385C19.9304 15.5122 19.9339 15.5902 19.9577 15.6588C20.0375 15.8897 20.3843 15.8611 20.4447 15.6322C20.4615 15.5691 20.4634 15.5023 20.4672 15.4739C20.458 15.3177 20.4634 15.5024 20.4672 15.4739C20.458 15.3177 20.4524 15.1991 20.4435 15.0806C20.44 15.0325 20.4285 14.9852 20.4213 14.9374Z" fill="#D1D1D1"/>
<path d="M20.4672 15.4739C20.4582 15.3176 20.4634 15.5023 20.4672 15.4739V15.4739Z" fill="white"/>
<path d="M19.0501 15.4187C19.0531 15.4185 19.056 15.417 19.0588 15.4167C19.0508 15.4167 19.0384 15.4169 19.0258 15.4173C19.034 15.4175 19.0415 15.4188 19.0501 15.4187Z" fill="white"/>
<path d="M19.0501 15.4187C19.0415 15.4189 19.034 15.4176 19.0257 15.4173C18.9845 15.4185 18.9419 15.4207 19.0501 15.4187Z" fill="white"/>
<path d="M19.0588 15.4167C19.0558 15.417 19.053 15.4185 19.0501 15.4187C19.0724 15.4172 19.0705 15.4167 19.0588 15.4167Z" fill="white"/>
<path d="M18.6478 13.781L18.2409 14.1417C18.2633 14.1553 18.2853 14.1695 18.3066 14.185C18.503 14.3281 18.6272 14.5444 18.6844 14.778C18.7135 14.8966 18.7242 15.02 18.738 15.1419C18.7568 15.3088 18.8515 15.4114 19.0259 15.4173C19.0386 15.417 19.0511 15.4167 19.059 15.4167C19.1429 15.4074 19.2271 15.3485 19.254 15.2325C19.2702 15.1623 19.2628 15.0846 19.2564 15.0113C19.2058 14.4299 18.986 14.031 18.6478 13.781Z" fill="#D1D1D1"/>
</svg>
