<svg width="35" height="35" viewBox="0 0 35 35" fill="none" xmlns="http://www.w3.org/2000/svg">
<path d="M17.0186 34.6352L17.0084 34.6334H16.981C11.5369 34.6334 8.0587 32.0551 7.71652 31.9063L1.30068 33.5744L3.02013 27.3382L2.61122 26.6966C0.917444 24.0003 0.0175171 20.895 0.0175171 17.6974C0.0175171 2.65352 18.401 -4.86926 29.0393 5.76392C39.652 16.2859 32.2011 34.6352 17.0186 34.6352Z" fill="#4CAF50"/>
<path d="M26.3259 21.8993L26.3105 22.0277C25.7955 21.771 23.2874 20.5443 22.8203 20.3749C21.7715 19.9866 22.0675 20.3133 20.0538 22.6196C19.7544 22.9532 19.4567 22.9789 18.9485 22.7479C18.4353 22.4913 16.7877 21.9524 14.8373 20.2073C13.318 18.8471 12.2983 17.179 11.9972 16.6657C11.4959 15.8 12.5447 15.6768 13.4994 13.8701C13.6705 13.5108 13.5832 13.2285 13.4566 12.9736C13.3283 12.717 12.3069 10.202 11.8792 9.1994C11.4685 8.20024 11.0459 8.32685 10.7294 8.32685C9.74396 8.24131 9.02368 8.25499 8.38894 8.9154C5.62756 11.9505 6.32389 15.0814 8.68663 18.4108C13.33 24.4879 15.8039 25.6068 20.3275 27.1603C21.5491 27.5487 22.6629 27.4939 23.544 27.3673C24.526 27.2116 26.5671 26.1338 26.9931 24.9276C27.4294 23.7214 27.4294 22.7206 27.3011 22.4896C27.1745 22.2586 26.8392 22.1303 26.3259 21.8993Z" fill="#FAFAFA"/>
</svg>
