<svg width="31" height="19" viewBox="0 0 31 19" fill="none" xmlns="http://www.w3.org/2000/svg">
<g id="Vector">
<path d="M9.68755 13.5529C8.18305 13.5529 6.9638 14.7717 6.9638 16.2764C6.9638 17.7812 8.18305 19 9.68755 19C11.1926 19 12.4115 17.7812 12.4115 16.2764C12.4115 14.7717 11.1926 13.5529 9.68755 13.5529ZM9.68755 17.4605C9.03353 17.4605 8.50358 16.9304 8.50358 16.2764C8.50358 15.6221 9.03353 15.0923 9.68755 15.0923C10.3416 15.0923 10.872 15.6221 10.872 16.2764C10.872 16.9304 10.3416 17.4605 9.68755 17.4605Z" fill="#F04927"/>
<path d="M24.0503 13.5529C22.5458 13.5529 21.3266 14.7717 21.3266 16.2764C21.3266 17.7812 22.5458 19 24.0503 19C25.5554 19 26.7743 17.7812 26.7743 16.2764C26.7743 14.7717 25.5554 13.5529 24.0503 13.5529ZM24.0503 17.4605C23.3963 17.4605 22.8664 16.9304 22.8664 16.2764C22.8664 15.6221 23.3963 15.0923 24.0503 15.0923C24.7045 15.0923 25.2348 15.6221 25.2348 16.2764C25.2348 16.9304 24.7045 17.4605 24.0503 17.4605Z" fill="#F04927"/>
<path d="M12.7518 5.18404C12.7518 5.5657 12.4395 5.87793 12.0579 5.87793H2.48278C2.10113 5.87793 1.78898 5.5657 1.78898 5.18404V4.7677C1.78898 4.38612 2.1012 4.07388 2.48278 4.07388H12.0579C12.4396 4.07388 12.7518 4.38612 12.7518 4.7677V5.18404Z" fill="#F04927"/>
<path d="M29.3875 9.24656C28.3888 8.98692 27.8173 8.82367 27.4252 8.0663L26.1139 5.41122C25.7215 4.65384 24.7026 4.0341 23.8499 4.0341H22.0564C22.0564 4.0341 21.8151 4.03913 21.8151 3.79633C21.8151 3.23961 21.8151 1.56955 21.8151 1.56955C21.8151 0.706315 21.3266 0 20.2875 0H5.67025C4.18259 0 3.4763 0.706391 3.4763 1.56955V2.96503C3.4763 2.96503 3.4763 3.38007 3.87799 3.38007C5.92295 3.38007 12.0579 3.38007 12.0579 3.38007C12.8231 3.38007 13.4457 4.00255 13.4457 4.76778V5.18411C13.4457 5.94934 12.8231 6.57182 12.0579 6.57182H3.87799C3.87799 6.57182 3.4763 6.53844 3.4763 6.97207C3.4763 7.18744 3.4763 7.33202 3.4763 7.45197C3.4763 7.83363 3.99939 7.8334 3.99939 7.8334H9.50571C10.2709 7.8334 10.8935 8.45596 10.8935 9.22111V9.63745C10.8935 10.4027 10.2709 11.0252 9.50571 11.0252H4.08627C4.08627 11.0252 3.4763 11.0139 3.4763 11.4996C3.4763 12.3426 3.4763 14.8716 3.4763 14.8716C3.4763 15.7347 4.18259 16.4411 5.0458 16.4411C5.0458 16.4411 5.69601 16.4411 5.91274 16.4411C6.10936 16.4411 6.13832 16.3316 6.13832 16.2766C6.13832 14.3196 7.7306 12.7276 9.68762 12.7276C11.6448 12.7276 13.237 14.3197 13.237 16.2766C13.237 16.3318 13.2213 16.4411 13.3717 16.4411C15.0902 16.4411 20.368 16.4411 20.368 16.4411C20.5067 16.4411 20.5011 16.3242 20.5011 16.2766C20.5011 14.3196 22.0933 12.7276 24.0504 12.7276C26.0075 12.7276 27.5997 14.3197 27.5997 16.2766C27.5997 16.3318 27.5983 16.4411 27.6851 16.4411C28.4731 16.4411 29.449 16.4411 29.449 16.4411C30.3022 16.4411 31 15.7432 31 14.8901V11.9436C31.0001 9.46209 30.2166 9.46209 29.3875 9.24656ZM26.4362 9.10855C26.4362 9.10855 23.1426 9.10855 22.0216 9.10855C21.8393 9.10855 21.815 8.93098 21.815 8.93098V5.25346C21.815 5.25346 21.8048 5.11225 22.0389 5.11225C22.3539 5.11225 23.2986 5.11225 23.2986 5.11225C24.0575 5.11225 24.9641 5.6637 25.3131 6.33763L26.48 8.70014C26.5291 8.79525 26.5816 8.87969 26.6379 8.95537C26.6793 9.01085 26.6098 9.10855 26.4362 9.10855Z" fill="#F04927"/>
<path d="M10.1995 9.63745C10.1995 10.0191 9.88729 10.3313 9.50572 10.3313H0.693797C0.312148 10.3313 0 10.0191 0 9.63745V9.22111C0 8.83953 0.312224 8.52729 0.693797 8.52729H9.50572C9.88736 8.52729 10.1995 8.83953 10.1995 9.22111V9.63745Z" fill="#F04927"/>
</g>
</svg>
