<svg width="30" height="30" viewBox="0 0 30 30" fill="none" xmlns="http://www.w3.org/2000/svg">
<g id="Vector">
<path fill-rule="evenodd" clip-rule="evenodd" d="M12.846 4.21806L14.8828 5.2533V0H10.0195V5.2533L12.0543 4.21921C12.2944 4.09744 12.5871 4.0876 12.846 4.21806Z" fill="#F04927"/>
<path fill-rule="evenodd" clip-rule="evenodd" d="M24.9023 10.6194V0.878906C24.9023 0.393448 24.5089 0 24.0234 0H16.6406V6.68335C16.6406 7.31529 15.9663 7.80167 15.3078 7.43591L12.4512 5.98434L9.53545 7.46613C8.9502 7.76253 8.26332 7.32994 8.26378 6.68335L8.26172 0H0.878906C0.393448 0 0 0.393448 0 0.878906V24.0234C0 24.5089 0.393448 24.9023 0.878906 24.9023H10.6194C9.53522 22.2308 9.54666 19.2593 10.6496 16.5967C12.9561 11.0282 19.3172 8.35281 24.9023 10.6194Z" fill="#F04927"/>
<path fill-rule="evenodd" clip-rule="evenodd" d="M27.3013 14.271C25.6339 12.6036 23.3304 11.5723 20.7861 11.5723C18.2419 11.5723 15.9384 12.6036 14.271 14.271C12.6036 15.9384 11.5723 18.2419 11.5723 20.7861C11.5723 23.3304 12.6036 25.6339 14.271 27.3013C15.9384 28.9687 18.2419 30 20.7861 30C23.3304 30 25.6339 28.9687 27.3013 27.3013C28.9687 25.6339 30 23.3304 30 20.7861C30 18.2419 28.9687 15.9384 27.3013 14.271ZM24.4913 23.6712C23.876 24.2864 23.0262 24.668 22.0896 24.668H17.9883C17.5028 24.668 17.1094 24.2745 17.1094 23.7891C17.1094 23.3036 17.5028 22.9102 17.9883 22.9102H22.0896C22.9923 22.9102 23.7305 22.172 23.7305 21.2693C23.7305 20.7811 23.578 20.3817 23.2484 20.0523C22.9511 19.7548 22.541 19.5703 22.0896 19.5703H19.6413L20.1633 20.0915C20.5067 20.4327 20.5083 20.9878 20.167 21.3309C19.8257 21.6742 19.2707 21.6756 18.9276 21.3343L16.908 19.3185C16.5646 18.9773 16.5633 18.4225 16.9045 18.0791L18.9203 16.0597C19.2616 15.7166 19.8164 15.715 20.1597 16.0563C20.5028 16.3976 20.5044 16.9524 20.1631 17.2957L19.6472 17.8125H22.0896C23.9628 17.8125 25.4883 19.338 25.4883 21.2112C25.4883 22.1867 25.1381 23.0244 24.4913 23.6712Z" fill="#F04927"/>
</g>
</svg>
