<svg width="32" height="32" viewBox="0 0 32 32" fill="none" xmlns="http://www.w3.org/2000/svg">
<g id="Vector">
<path d="M15.9995 0C9.93341 0 4.99933 4.934 4.99933 11C4.99933 17.066 9.93341 22 15.9995 22C22.0636 22 26.9997 17.066 26.9997 11C26.9997 4.934 22.0636 0 15.9995 0ZM21.7816 9.444L19.8816 11.824L20.0896 14.934C20.1136 15.28 19.9556 15.614 19.6696 15.816C19.4956 15.938 19.2935 16 19.0895 16C18.9575 16 18.8235 15.974 18.6995 15.92L15.9995 14.774L13.3015 15.92C12.9815 16.056 12.6134 16.018 12.3314 15.816C12.0474 15.614 11.8894 15.28 11.9114 14.934L12.1194 11.824L10.2194 9.444C10.0074 9.18 9.94541 8.826 10.0514 8.504C10.1574 8.182 10.4194 7.938 10.7474 7.852L13.5835 7.11L15.1395 4.49C15.4995 3.882 16.4995 3.882 16.8575 4.49L18.4135 7.11L21.2516 7.852C21.5776 7.938 21.8396 8.184 21.9476 8.504C22.0556 8.824 21.9916 9.178 21.7816 9.444Z" fill="#F04927"/>
<path d="M4.74933 17.486L0.133262 25.5C-0.0687407 25.852 -0.0387403 26.29 0.207263 26.61C0.453267 26.93 0.867273 27.074 1.25928 26.966L7.13137 25.388L8.69339 31.26C8.79739 31.65 9.1274 31.94 9.5274 31.994C9.5714 31.998 9.6174 32 9.6594 32C10.0134 32 10.3454 31.812 10.5254 31.5L14.8915 23.944C10.5534 23.576 6.82536 21.07 4.74933 17.486Z" fill="#F04927"/>
<path d="M31.8677 25.5L27.2497 17.486C25.1756 21.07 21.4456 23.576 17.1075 23.944L21.4736 31.5C21.6536 31.812 21.9856 32 22.3396 32C22.3816 32 22.4276 31.998 22.4696 31.992C22.8716 31.938 23.1996 31.648 23.3056 31.258L24.8676 25.386L30.7397 26.964C31.1317 27.072 31.5437 26.928 31.7917 26.608C32.0397 26.29 32.0677 25.852 31.8677 25.5Z" fill="#F04927"/>
</g>
</svg>
